<svg xmlns="http://www.w3.org/2000/svg" viewBox="0 0 291.17 377.76"><defs><style>.cls-1,.cls-7{fill:#ffb75c;}.cls-1,.cls-8{stroke:#000;stroke-miterlimit:10;}.cls-2{fill:#ff3535;}.cls-3{fill:gray;}.cls-4{fill:#fff;}.cls-5{fill:#4d4d4d;}.cls-6{fill:#157eff;}.cls-8{fill:none;}.cls-9{fill:#000010;}.cls-10{fill:#ff7b75;}.cls-11{fill:#754c24;}.cls-12{fill:#ccc;}.cls-13{fill:#999;}</style></defs><title>Mike-Sling-Reverse_1</title><g id="Layer_2" data-name="Layer 2"><g id="Layer_1-2" data-name="Layer 1"><path class="cls-1" d="M85.12,117.42l9,3.55c3.78,1.49,6.14,6.57,5.74,11.8,5.65-.09,13.22,4.48,22.2,10.09,19,11.88,28.53,17.86,28.16,19.86-.26,1.42-2.3,1.58-31.61-1.13-11-1-19.09-1.84-23.71-5.27-1.75,4.45-5.57,6.81-9.23,5.36l-9-3.55c-2.84.54-5.37-1.93-5.86-5.2a8.26,8.26,0,0,1,2.11-6.82,8.92,8.92,0,0,1-1-5.19c.44-2.69,2.39-3.23,2.57-5.69s-1.58-3.27-1.65-5.44c0-1.74,1-4.19,5.68-7.32a7.36,7.36,0,0,1,.52-4.09C80.14,116.29,82.73,115.64,85.12,117.42Z"/><path class="cls-2" d="M98.79,133.06c-.53.85-.42,1.19-2.94,10-2.8,9.79-3.07,9.73-3.06,10.78.08,11.3,28.86,20.49,33.25,21.89,18.2,5.81,27.43,8.55,33.7.81,5.31-6.56,8.27-19.76,4.77-27.88-4.3-10-14.18-2.22-37.89-10.24C113.76,134.09,102.54,127,98.79,133.06Z"/><path d="M99,133.16a5.21,5.21,0,0,0-.53,1.4l-.41,1.5-.76,3c-.48,2-1,4-1.47,6.06l-1.44,6.08L94,152.72a5.33,5.33,0,0,0-.13.68,2,2,0,0,0,0,.54,7.33,7.33,0,0,0,.81,2.5,16.05,16.05,0,0,0,3.74,4.19,44.46,44.46,0,0,0,4.89,3.36,108.11,108.11,0,0,0,10.81,5.6c3.71,1.72,7.5,3.34,11.35,4.82s7.78,2.88,11.73,4.08c2,.58,4,1.11,6,1.52a32.81,32.81,0,0,0,6.06.63,12.68,12.68,0,0,0,5.68-1.31,12.12,12.12,0,0,0,4.23-3.83,30,30,0,0,0,4.34-11,36.71,36.71,0,0,0,.7-5.88,24.46,24.46,0,0,0-.42-5.76,12.43,12.43,0,0,0-.33-1.37l-.19-.67-.25-.64a9.38,9.38,0,0,0-1.19-2.32,5.88,5.88,0,0,0-3.92-2.4,39.28,39.28,0,0,0-5.81-.55c-2.06-.1-4.17-.17-6.28-.36a72.55,72.55,0,0,1-12.57-2.2c-1-.27-2-.59-3.05-.9s-2-.68-3-1.07c-2-.72-3.91-1.6-5.81-2.47-3.81-1.73-7.48-3.7-11.3-5.23a23.2,23.2,0,0,0-5.89-1.65,7,7,0,0,0-3,.29A4.58,4.58,0,0,0,99,133.16Zm-.34-.21a5,5,0,0,1,2.44-2.07,8.17,8.17,0,0,1,3.17-.43,28.7,28.7,0,0,1,6.2,1.2c4,1.19,8,2.57,11.9,3.82a101.52,101.52,0,0,0,23.82,4.84c2,.14,4.06.25,6.15.35a34.47,34.47,0,0,1,6.55.75,11.49,11.49,0,0,1,3.48,1.46,9.43,9.43,0,0,1,2.76,2.76,13.15,13.15,0,0,1,1.55,3.24l.29.82.2.84a13.77,13.77,0,0,1,.35,1.67,26.39,26.39,0,0,1,.25,6.63,34.62,34.62,0,0,1-1.1,6.42,31.12,31.12,0,0,1-5.74,11.59,14.08,14.08,0,0,1-5.23,4,15.88,15.88,0,0,1-6.42,1.11,57.41,57.41,0,0,1-12.38-2.26l-12.07-3.23a119.22,119.22,0,0,1-12-3.85A66.2,66.2,0,0,1,101.44,167a32.64,32.64,0,0,1-5.13-4,16.55,16.55,0,0,1-3.94-5.5,9.31,9.31,0,0,1-.65-3.51,4.06,4.06,0,0,1,.13-1c.09-.31.18-.57.27-.82l.56-1.47q1.11-2.9,2.13-5.84c.69-2,1.29-3.94,1.92-5.92.31-1,.59-2,.88-3l.42-1.5A5.86,5.86,0,0,1,98.62,133Z"/><path class="cls-1" d="M87.86,155.59h0c.38-2.7-.91-5.33-2.86-5.86l-10-2.68c-2-.52-3.86,1.26-4.24,4h0c-.38,2.7.9,5.33,2.86,5.86l9.94,2.68C85.57,160.07,87.48,158.29,87.86,155.59Z"/><path class="cls-1" d="M85.66,155.51l.14-1a2.59,2.59,0,0,0-1.43-2.93h0c-1-.26-1.94.62-2.13,2l-.13,1a2.58,2.58,0,0,0,1.43,2.93h0C84.51,157.75,85.47,156.86,85.66,155.51Z"/><path class="cls-1" d="M89.27,145.79h0c.38-2.7-.9-5.34-2.86-5.87l-10-2.67c-1.95-.53-3.86,1.25-4.24,3.95h0c-.38,2.7.91,5.34,2.86,5.86l10,2.68C87,150.26,88.89,148.49,89.27,145.79Z"/><path class="cls-1" d="M87.07,145.7l.14-1c.19-1.35-.45-2.67-1.43-2.93h0c-1-.26-1.93.63-2.12,2l-.14,1c-.19,1.35.45,2.67,1.43,2.93h0C85.93,147.94,86.88,147.05,87.07,145.7Z"/><path class="cls-1" d="M89.86,136.19h0c.61-2.62-.44-5.45-2.34-6.3l-9.64-4.29c-1.9-.84-3.95.61-4.56,3.23h0c-.61,2.62.44,5.45,2.34,6.29l9.64,4.29C87.2,140.26,89.25,138.8,89.86,136.19Z"/><path class="cls-1" d="M87.68,135.74l.22-1a2.77,2.77,0,0,0-1.17-3.14h0c-.94-.43-2,.3-2.27,1.61l-.22,1a2.8,2.8,0,0,0,1.16,3.15h0C86.35,137.78,87.38,137.05,87.68,135.74Z"/><path class="cls-1" d="M94.21,129.93h0c.88-2.47.13-5.48-1.66-6.69l-9.1-6.15c-1.79-1.21-4-.18-4.84,2.29h0c-.88,2.47-.13,5.48,1.66,6.69l9.1,6.16C91.16,133.44,93.34,132.4,94.21,129.93Z"/><path class="cls-1" d="M92.11,129.06l.31-.89a3,3,0,0,0-.83-3.35h0c-.89-.6-2-.09-2.42,1.15l-.32.9a3,3,0,0,0,.83,3.34h0C90.58,130.81,91.67,130.3,92.11,129.06Z"/><path class="cls-1" d="M82,133.94h0c.69,2.58,2.79,3.9,4.65,2.94l9.5-4.88c1.86-1,2.82-3.86,2.13-6.43h0c-.7-2.58-2.79-3.91-4.66-2.95l-9.5,4.89C82.23,128.47,81.27,131.36,82,133.94Z"/><path class="cls-1" d="M83.87,132.43l.26.93c.34,1.29,1.39,1.95,2.33,1.47h0a2.85,2.85,0,0,0,1.06-3.21l-.25-.94c-.35-1.29-1.4-2-2.33-1.47h0A2.89,2.89,0,0,0,83.87,132.43Z"/><ellipse class="cls-1" cx="167.02" cy="305.69" rx="10.5" ry="51.5"/><path class="cls-3" d="M180,338.72c-.42-.35,1.7-2.58,2.48-6,.47-2.08.3-4,.1-4s-.54,2.29-1.8,5.83c-.88,2.46-1.31,3.69-1.63,3.64-.62-.11-.42-5.1,1.39-9,.47-1,1-1.73,1.7-1.85a2.29,2.29,0,0,1,2.11,1.27c.2.36.57,1.25-.86,5.25-.43,1.18-.83,2.14-1.11,2.79a3.57,3.57,0,0,1-1.71,1.85C180.34,338.7,180.1,338.82,180,338.72Z"/><path d="M179.67,339.1a.92.92,0,0,1-.21-.34.69.69,0,0,1,0-.24,1.31,1.31,0,0,1,.07-.31,3.89,3.89,0,0,1,.18-.4c.12-.23.25-.45.37-.66.25-.42.49-.84.71-1.26a14.35,14.35,0,0,0,1.1-2.63,11.91,11.91,0,0,0,.49-2.79,6.84,6.84,0,0,0-.05-1.37.81.81,0,0,0,0-.11l0,0a.3.3,0,0,0,.22.11.3.3,0,0,0,.27-.1l0,0,0,.06a.58.58,0,0,0-.05.14l-.2.69a52.6,52.6,0,0,1-1.79,5.63l-.53,1.38a5.28,5.28,0,0,1-.71,1.4.45.45,0,0,1-.36.17.42.42,0,0,1-.37-.23,1.32,1.32,0,0,1-.16-.44,5.24,5.24,0,0,1-.07-.77,12.36,12.36,0,0,1,.07-1.5,20.6,20.6,0,0,1,1.45-5.74,12.81,12.81,0,0,1,.66-1.34,2.68,2.68,0,0,1,1.08-1.11,1.67,1.67,0,0,1,1.54.14,2.94,2.94,0,0,1,1.08,1.08,2.55,2.55,0,0,1,.17,1.51,12,12,0,0,1-.29,1.45,24.71,24.71,0,0,1-.94,2.79c-.38.91-.73,1.82-1.14,2.72a3,3,0,0,1-2.25,1.68Zm.32-.38c.23.1.46-.1.68-.18a2.79,2.79,0,0,0,.61-.4,3.52,3.52,0,0,0,.9-1.13c.4-.89.72-1.82,1.08-2.73a25.06,25.06,0,0,0,.88-2.79,12.31,12.31,0,0,0,.26-1.43,2.28,2.28,0,0,0-.18-1.36c-.45-.78-1.45-1.45-2.27-1.06a4.54,4.54,0,0,0-1.52,2.3,19.94,19.94,0,0,0-1.3,5.64,11.6,11.6,0,0,0,0,1.44,3.72,3.72,0,0,0,.08.68.9.9,0,0,0,.08.25s0,0-.08,0-.07,0-.06,0a5.8,5.8,0,0,0,.57-1.22l.49-1.38a52.23,52.23,0,0,0,1.65-5.61l.2-.73c0-.06,0-.12.06-.2l0-.11a1,1,0,0,1,.11-.17.44.44,0,0,1,.66,0,1,1,0,0,1,.11.19,1.4,1.4,0,0,1,.06.24,6.93,6.93,0,0,1,.1,1.56,12.1,12.1,0,0,1-.46,3,15.56,15.56,0,0,1-1.1,2.82c-.23.44-.47.88-.71,1.31-.11.21-.23.42-.33.63a2.86,2.86,0,0,0-.12.27s0,.1,0,0,0,0,0-.06a.24.24,0,0,0-.12-.17Z"/><path d="M97.68,365a10.43,10.43,0,0,1,.58-4.6,15.55,15.55,0,0,1,5.43-2.19c2.86-.55,4.43.05,7.4,0a26,26,0,0,0,7.9-1.65c1.32-.41,5.16-1.69,13.81-7.12,6.69-4.19,8.46-5,10.37-7.12a58.76,58.76,0,0,0,4-4.93c3.41-4.78,4.33-7.58,6.41-7.67a4.17,4.17,0,0,1,3,1.64c2.28,2.39,1.15,4.88,3,8.22a11.05,11.05,0,0,0,5.92,4.93c1.34.49,4.58,1.69,6.91,0,3.23-2.33,1.84-8.08,3.95-8.77,1.88-.6,4.64,3.41,5.92,6a22.18,22.18,0,0,1,2,7.67,83.9,83.9,0,0,1,.49,14.25"/><path d="M97.18,365.08a11.11,11.11,0,0,1,.62-4.82l.06-.15L98,360a15.26,15.26,0,0,1,8.2-2.47c1.46,0,2.83.24,4.21.25a18,18,0,0,0,4.08-.38c1.35-.28,2.68-.69,4-1.1a30.41,30.41,0,0,0,3.88-1.49,81.83,81.83,0,0,0,7.39-3.94c2.4-1.42,4.77-2.93,7.17-4.38s4.84-2.85,6.58-5a59.62,59.62,0,0,0,5-6.68c.77-1.17,1.49-2.37,2.34-3.52a4.94,4.94,0,0,1,1.6-1.51,2.62,2.62,0,0,1,2.24,0,5.61,5.61,0,0,1,1.74,1.32,6,6,0,0,1,1.25,1.78,21.27,21.27,0,0,1,1,4.13,10,10,0,0,0,4.75,6.46,15.09,15.09,0,0,0,3.84,1.55,6.7,6.7,0,0,0,4-.08,4.8,4.8,0,0,0,2.62-3,30.2,30.2,0,0,0,.91-4.08,3.51,3.51,0,0,1,.92-1.94,1.79,1.79,0,0,1,2.08.13,11.26,11.26,0,0,1,2.85,3.11,21.16,21.16,0,0,1,2,3.72,19.78,19.78,0,0,1,1.11,4.07,81.27,81.27,0,0,1,.8,16.79A81.09,81.09,0,0,0,183.7,347a19.29,19.29,0,0,0-1.13-4,20.51,20.51,0,0,0-2-3.68,11,11,0,0,0-2.81-3,1.58,1.58,0,0,0-1.83-.13,3.33,3.33,0,0,0-.82,1.81,29.73,29.73,0,0,1-.9,4.12,5,5,0,0,1-2.75,3.17,7,7,0,0,1-4.24.12,15.41,15.41,0,0,1-4-1.56,10.35,10.35,0,0,1-5-6.68,21.47,21.47,0,0,0-.95-4,6,6,0,0,0-1.17-1.64,5.06,5.06,0,0,0-1.6-1.19,2.07,2.07,0,0,0-1.82,0,4.41,4.41,0,0,0-1.42,1.37c-.82,1.11-1.53,2.33-2.3,3.5a60.48,60.48,0,0,1-5,6.79,16,16,0,0,1-3.14,2.9c-1.16.82-2.36,1.55-3.55,2.29-2.39,1.47-4.74,3-7.15,4.45a84.27,84.27,0,0,1-7.43,4,29.42,29.42,0,0,1-4,1.55,41.62,41.62,0,0,1-4.08,1.16,19.22,19.22,0,0,1-4.27.43c-1.44,0-2.85-.21-4.2-.22a14.3,14.3,0,0,0-7.68,2.38l.19-.25a10.12,10.12,0,0,0-.54,4.39Z"/><rect class="cls-4" x="145.63" y="347.51" width="4.44" height="19.25" transform="translate(-158.76 121.77) rotate(-30)"/><path d="M150.58,366.29l.29-.19c1.17-.76,2.29-1.46,3.49-2.13l-.16.62-9.45-16.77.34.09-3.87,2.18.08-.28Zm.35.6-.19-.31L140.94,350l-.1-.18.18-.1,3.82-2.26.21-.13.13.22,9.8,16.56.23.39-.39.23C153.55,365.5,152.23,366.22,150.93,366.89Z"/><rect class="cls-4" x="138.23" y="351.96" width="4.44" height="19.25" transform="translate(-161.97 118.67) rotate(-30)"/><path d="M143.18,370.73l.29-.19c1.17-.76,2.29-1.46,3.49-2.13l-.16.62-9.45-16.77.34.09-3.87,2.18.07-.28Zm.35.6-.19-.31-9.8-16.56-.1-.18.18-.1,3.82-2.26.21-.13.13.22,9.8,16.57.23.38-.4.23C146.15,370,144.83,370.66,143.53,371.33Z"/><rect class="cls-4" x="153.04" y="343.07" width="4.44" height="19.25" transform="translate(-155.55 124.88) rotate(-30)"/><path d="M158,361.85l.3-.19c1.16-.76,2.29-1.46,3.49-2.13l-.17.62-9.45-16.77.34.09-3.87,2.18.08-.28Zm.35.6-.18-.31-9.8-16.57-.11-.17.18-.1,3.82-2.27.22-.12.13.22,9.79,16.56.23.39-.39.23C161,361.06,159.63,361.78,158.33,362.45Z"/><path class="cls-5" d="M180.18,339.62c2.17,0,3.59,5.53,3.95,6.91.66,2.57,1.17,6.39,0,6.91-.66.29-1.26-.72-2.47-.5s-1.28,1.34-2.47,2c-1.73.92-4.39.05-5.92-1.48-.21-.22-2.07-2.13-1.48-3.46.66-1.48,3.46-.27,4.93-2s-.37-4.3,1.49-6.91C178.55,340.61,179.26,339.61,180.18,339.62Z"/><path d="M180.18,339.12a2.38,2.38,0,0,1,1.62.82,6.23,6.23,0,0,1,.91,1.3,16.84,16.84,0,0,1,1.15,2.8,28.24,28.24,0,0,1,1.26,5.82,7.72,7.72,0,0,1-.18,3.08,1.4,1.4,0,0,1-.59.75,1.08,1.08,0,0,1-1,0,3.43,3.43,0,0,0-1.27-.47,1.47,1.47,0,0,0-1.13.39c-.31.28-.59.72-1,1.08a3.65,3.65,0,0,1-3,.82,6.85,6.85,0,0,1-4.91-3.24,3.91,3.91,0,0,1-.57-1.43,1.48,1.48,0,0,1,.55-1.46,3.08,3.08,0,0,1,1.47-.41c.5-.05,1-.08,1.45-.17a2.63,2.63,0,0,0,2.11-1.68,9.91,9.91,0,0,0,.15-2.89,5.15,5.15,0,0,1,.72-2.84,5.92,5.92,0,0,1,.9-1.16,1.89,1.89,0,0,1,1.3-.62Zm0,.5a1.89,1.89,0,0,0-1.28.64,6,6,0,0,0-.87,1.18,5,5,0,0,0-.64,2.8,9.45,9.45,0,0,1-.11,2.95,2.83,2.83,0,0,1-2.23,1.86c-1,.24-2,.11-2.79.59a1.16,1.16,0,0,0-.39,1.16,3.53,3.53,0,0,0,.55,1.28,6.42,6.42,0,0,0,4.64,2.94,3.14,3.14,0,0,0,2.53-.73c.33-.3.57-.72,1-1.11a2.14,2.14,0,0,1,1.56-.58,4.21,4.21,0,0,1,1.49.49c.2.08.31.09.41,0s.2-.22.28-.4a7.25,7.25,0,0,0,.07-2.76,27.62,27.62,0,0,0-1.34-5.63,17.42,17.42,0,0,0-1.13-2.61c-.45-.78-1.11-1.58-1.72-1.58Z"/><path d="M97.88,361.34a176.08,176.08,0,0,0,43.37,5.24,173.91,173.91,0,0,0,43.37-5.74,174.52,174.52,0,0,1-21.47,4.49,173.54,173.54,0,0,1-43.84.72,178.94,178.94,0,0,1-21.66-3.74Z"/><path class="cls-4" d="M190.54,367.75c.13-.79-.46-1.17-3-4.44-2-2.65-2.14-3.07-3-3.46-1.68-.79-3.24,0-5.43.49-3.65.85-5.83.16-8.88,0-7.33-.38-14.66,2.54-26.16,4-5.56.68-12.75.46-27.14,0-11.57-.36-13.68-1-15.3-2-.55-.35-2.49-1.65-3.45-1s-.51,2.36-.49,2.47c.73,4.08,11.32,6,17.27,6.91,9.49,1.4,13.86,1.05,25.66,1.48,14.58.52,20.91.51,33.56.49,0,0,3.65,0,10.85-2C188.72,369.72,190.34,368.93,190.54,367.75Z"/><path d="M190.05,367.66a.61.61,0,0,0-.08-.42,4.46,4.46,0,0,0-.39-.57l-.93-1.2c-.64-.8-1.27-1.61-1.88-2.44s-1.22-1.71-1.82-2.38a2.35,2.35,0,0,0-1.12-.58,3.79,3.79,0,0,0-1.35-.05c-.93.13-1.91.47-2.93.71a16.21,16.21,0,0,1-3.11.46,58.44,58.44,0,0,1-6.16-.41,48.36,48.36,0,0,0-12,1.4c-4,.83-8,1.66-12.08,2.22a75.48,75.48,0,0,1-12.29.66c-4.09,0-8.18-.18-12.27-.31s-8.17-.24-12.26-.54a30.58,30.58,0,0,1-6.12-.91,7.19,7.19,0,0,1-1.45-.64c-.45-.28-.86-.55-1.3-.77a4.18,4.18,0,0,0-1.36-.48.87.87,0,0,0-1,.5A2.91,2.91,0,0,0,98,363.3a2.81,2.81,0,0,0,.41,1.34,6.17,6.17,0,0,0,2.18,1.93,25.29,25.29,0,0,0,5.66,2.17,90.46,90.46,0,0,0,12,2.21,118.63,118.63,0,0,0,12.22.81c4.08.1,8.17.21,12.26.37q12.26.48,24.52.5c4.08-.05,8.2.27,12.21-.63,2-.38,4-.85,6-1.39a24.72,24.72,0,0,0,2.91-.95,6.53,6.53,0,0,0,1.36-.71,2,2,0,0,0,.87-1.2Zm.49.09a1.94,1.94,0,0,1-.87,1.21,7,7,0,0,1-1.35.72,27.51,27.51,0,0,1-2.91,1c-2,.55-4,1-6,1.42-4,.92-8.15.63-12.22.69q-12.27.06-24.53-.37c-4.09-.14-8.17-.23-12.26-.31a116.57,116.57,0,0,1-12.25-.75,90.33,90.33,0,0,1-12.09-2.16,25.28,25.28,0,0,1-5.78-2.19,6.55,6.55,0,0,1-2.37-2.08,3.35,3.35,0,0,1-.48-1.55,3.41,3.41,0,0,1,.19-1.63,1.38,1.38,0,0,1,.63-.68,1.74,1.74,0,0,1,.89-.12,4.62,4.62,0,0,1,1.53.52c.47.23.92.53,1.34.78a5.91,5.91,0,0,0,1.34.58,30.67,30.67,0,0,0,6,.86c4.07.28,8.16.35,12.24.47s8.17.23,12.26.25a73.8,73.8,0,0,0,12.17-.71c4-.58,8-1.43,12-2.28a49.2,49.2,0,0,1,12.25-1.47,57.77,57.77,0,0,0,6.07.37,15.47,15.47,0,0,0,2.94-.44c1-.24,1.93-.58,3-.75a3.88,3.88,0,0,1,3.26.89c.77.84,1.28,1.66,1.92,2.47s1.24,1.61,1.88,2.41l1,1.21a5.83,5.83,0,0,1,.47.71,1.61,1.61,0,0,1,.19,1.05Z"/><path class="cls-4" d="M116,366.76l16.54,1.48c1,.35,1.48.19,1.72,0,1.18-.94,0-5.21-1.48-5.43h-16a2.66,2.66,0,0,0-1.24,1.48A2.84,2.84,0,0,0,116,366.76Z"/><path d="M115.73,366.27l.53.05,16.33,1.61h.07c.6.22,1.32.34,1.57-.07a2.88,2.88,0,0,0,.2-1.82,6,6,0,0,0-.58-1.89,3,3,0,0,0-.54-.79.9.9,0,0,0-.72-.34h0l-15.79-.18h0a2.55,2.55,0,0,0-1.31,1.75A2.66,2.66,0,0,0,115.73,366.27Zm.67,1-.38-.49a2.84,2.84,0,0,1-.59-2.16,2.63,2.63,0,0,1,1.31-1.83h0l15.79-.17h0a1.32,1.32,0,0,1,1.11.44,3.27,3.27,0,0,1,.65.9,6.72,6.72,0,0,1,.68,2,3.32,3.32,0,0,1-.26,2.23,1.27,1.27,0,0,1-1.14.55,3.65,3.65,0,0,1-1.12-.21l.08,0Z"/><path class="cls-4" d="M153.53,367.25l22.21-1a8.25,8.25,0,0,0,.49-3.7c0-.48-.43-4.32-3-5.19a3.75,3.75,0,0,0-2.22,0l-17,1a13.25,13.25,0,0,0-.49,8.88Z"/><path d="M153.44,366.86h.38c7.28-.35,14.56-.64,21.9-.9l-.28.21a8.24,8.24,0,0,0,.54-2.9,9.45,9.45,0,0,0-.51-2.93,4.61,4.61,0,0,0-1.61-2.37,3.16,3.16,0,0,0-2.75-.37h-.05l-17,.85.06-.05A13.14,13.14,0,0,0,153.44,366.86Zm.21.78-.12-.39a13.19,13.19,0,0,1,.43-8.91v0H154l17-1.13h0a3.61,3.61,0,0,1,3.14.38,5.12,5.12,0,0,1,1.84,2.59,9.91,9.91,0,0,1,.59,3.1,9,9,0,0,1-.52,3.13l-.07.19h-.22C168.42,367,161,367.33,153.65,367.64Z"/><path d="M165.11,364.78a.25.25,0,0,0,.26-.12.09.09,0,0,0,0-.07s0,0,0-.14l0-.42.06-1.7.07-1.69a3.34,3.34,0,0,0,0-.73.46.46,0,0,0-.41-.3.49.49,0,0,0-.48.26c-.1.14-.06.46-.09.74l-.06,1.69-.06,1.7a2.79,2.79,0,0,0,0,.82.73.73,0,0,0,.64.46Zm0,.5a.74.74,0,0,1-.69-.43,3.09,3.09,0,0,1-.1-.85l-.06-1.7-.06-1.69,0-.43a1,1,0,0,1,.08-.5,1,1,0,0,1,.88-.57,1,1,0,0,1,.93.58,2.91,2.91,0,0,1,.11.95l.06,1.69.07,1.7v.42a1.43,1.43,0,0,1,0,.28,1,1,0,0,1-.09.34,1.23,1.23,0,0,1-1.11.71Z"/><path d="M167.58,364.78a.25.25,0,0,0,.26-.12.15.15,0,0,0,0-.07s0,0,0-.14l0-.42.06-1.7.06-1.69a3.48,3.48,0,0,0,0-.73.47.47,0,0,0-.41-.3.49.49,0,0,0-.49.26,2.44,2.44,0,0,0-.08.74L167,362.3l-.06,1.7a2.79,2.79,0,0,0,0,.82.71.71,0,0,0,.64.46Zm0,.5a.76.76,0,0,1-.7-.43,2.74,2.74,0,0,1-.09-.85l-.06-1.7-.06-1.69,0-.43a1,1,0,0,1,.08-.5,1,1,0,0,1,.88-.57,1,1,0,0,1,.93.58,3.21,3.21,0,0,1,.11.95l.06,1.69.06,1.7,0,.42a1.43,1.43,0,0,1,0,.28,1.31,1.31,0,0,1-.09.34,1.23,1.23,0,0,1-1.11.71Z"/><path d="M170.54,364.78a.25.25,0,0,0,.26-.12.09.09,0,0,0,0-.07s0,0,0-.14l0-.42.06-1.7.06-1.69a3.48,3.48,0,0,0,0-.73.47.47,0,0,0-.41-.3.5.5,0,0,0-.49.26,2.44,2.44,0,0,0-.08.74l-.06,1.69-.06,1.7a2.79,2.79,0,0,0,0,.82.72.72,0,0,0,.64.46Zm0,.5a.77.77,0,0,1-.7-.43,2.74,2.74,0,0,1-.09-.85l-.06-1.7-.06-1.69,0-.43a1,1,0,0,1,.08-.5,1,1,0,0,1,.88-.57,1,1,0,0,1,.93.58,3.21,3.21,0,0,1,.11.95l.06,1.69.06,1.7,0,.42a1.43,1.43,0,0,1,0,.28,1,1,0,0,1-.09.34,1.23,1.23,0,0,1-1.11.71Z"/><path d="M173,364.29a.25.25,0,0,0,.26-.12l0-.07s0-.05,0-.14l0-.42.06-1.7.06-1.69a3.47,3.47,0,0,0,0-.73.47.47,0,0,0-.41-.31.51.51,0,0,0-.49.26,2.23,2.23,0,0,0-.08.74l-.06,1.7-.06,1.69a2.55,2.55,0,0,0,0,.83.71.71,0,0,0,.64.46Zm0,.5a.75.75,0,0,1-.7-.43,2.83,2.83,0,0,1-.09-.86l-.06-1.69-.06-1.7,0-.42a1.08,1.08,0,0,1,.08-.51,1,1,0,0,1,.88-.57,1,1,0,0,1,.93.59,3.21,3.21,0,0,1,.11.95l.06,1.69.06,1.7,0,.42a1.46,1.46,0,0,1,0,.28,1.31,1.31,0,0,1-.09.34,1.25,1.25,0,0,1-1.11.71Z"/><path d="M162.64,365.27a.25.25,0,0,0,.27-.11l0-.07a1.13,1.13,0,0,1,0-.14v-.43l.07-1.69.06-1.7a2.81,2.81,0,0,0,0-.73.46.46,0,0,0-.4-.3.49.49,0,0,0-.49.26c-.1.14-.06.46-.08.74l-.07,1.7-.06,1.69a2.85,2.85,0,0,0,0,.83.7.7,0,0,0,.63.45Zm0,.5a.73.73,0,0,1-.69-.43,2.74,2.74,0,0,1-.09-.85l-.07-1.69-.06-1.7v-.42a1.06,1.06,0,0,1,.07-.51,1,1,0,0,1,.89-.57,1,1,0,0,1,.92.58,2.93,2.93,0,0,1,.11.95l.07,1.7.06,1.69V365a1.07,1.07,0,0,1-.1.61,1.2,1.2,0,0,1-1.11.71Z"/><path d="M157.71,365.27a.23.23,0,0,0,.26-.11.21.21,0,0,0,0-.07.38.38,0,0,0,0-.14l0-.43.06-1.69.06-1.7a3.48,3.48,0,0,0,0-.73.47.47,0,0,0-.41-.3.5.5,0,0,0-.49.26,2.44,2.44,0,0,0-.08.74l-.06,1.7-.06,1.69a2.86,2.86,0,0,0,0,.83.7.7,0,0,0,.64.45Zm0,.5a.74.74,0,0,1-.7-.43,2.74,2.74,0,0,1-.09-.85l-.06-1.69-.06-1.7,0-.42a1.08,1.08,0,0,1,.08-.51,1,1,0,0,1,.88-.57,1,1,0,0,1,.93.58,3.24,3.24,0,0,1,.11.95l.06,1.7.06,1.69,0,.43a1.46,1.46,0,0,1,0,.28,1,1,0,0,1-.09.33,1.21,1.21,0,0,1-1.11.71Z"/><path d="M155.24,365.27a.23.23,0,0,0,.26-.11.11.11,0,0,0,0-.07.38.38,0,0,0,0-.14l0-.43.06-1.69.07-1.7a3.34,3.34,0,0,0,0-.73.46.46,0,0,0-.41-.3.49.49,0,0,0-.48.26c-.1.14-.06.46-.09.74l-.06,1.7-.06,1.69a2.86,2.86,0,0,0,0,.83.72.72,0,0,0,.64.45Zm0,.5a.73.73,0,0,1-.69-.43,3.09,3.09,0,0,1-.1-.85l-.06-1.69-.06-1.7,0-.42a1.08,1.08,0,0,1,.08-.51,1,1,0,0,1,.88-.57,1,1,0,0,1,.93.58,2.93,2.93,0,0,1,.11.95l.06,1.7.07,1.69V365a1.46,1.46,0,0,1,0,.28,1,1,0,0,1-.09.33,1.21,1.21,0,0,1-1.11.71Z"/><path d="M160.18,365.27a.23.23,0,0,0,.26-.11l0-.07a.38.38,0,0,0,0-.14l0-.43.06-1.69.06-1.7a3.48,3.48,0,0,0,0-.73.48.48,0,0,0-.41-.3.49.49,0,0,0-.49.26,2.16,2.16,0,0,0-.08.74l-.06,1.7-.07,1.69a2.85,2.85,0,0,0,0,.83.7.7,0,0,0,.64.45Zm0,.5a.73.73,0,0,1-.7-.43,2.74,2.74,0,0,1-.09-.85l-.06-1.69-.07-1.7v-.42a1.08,1.08,0,0,1,.08-.51,1,1,0,0,1,.88-.57,1,1,0,0,1,.92.58,3,3,0,0,1,.12.95l.06,1.7.06,1.69,0,.43a1.46,1.46,0,0,1,0,.28,1,1,0,0,1-.1.33,1.2,1.2,0,0,1-1.1.71Z"/><path class="cls-4" d="M132,352.45,148,341.64c-.62-1-1.23-2-1.84-3a67.11,67.11,0,0,0-8.39,4.94,65.49,65.49,0,0,0-7.4,5.92C130.9,350.48,131.47,351.46,132,352.45Z"/><path d="M131.88,352.15l.27-.19c5.17-3.56,10.36-7,15.65-10.56l-.08.39-1.8-3,.32.09a67.1,67.1,0,0,0-15.88,10.67v0Zm.33.59-.17-.29-1.74-2.94v0l0,0a67.38,67.38,0,0,1,15.71-11l.2-.1.12.19,1.87,3,.15.23-.23.16C142.9,345.52,137.56,349.16,132.21,352.74Z"/><path class="cls-4" d="M144.66,341.93c-.31.34-.81,0-2.27,0-1,0-1.41.28-1.82,0s-.7-1.06-.46-1.37,1,.2,2.28,0c1.05-.16,1.34-.65,1.82-.45A1.39,1.39,0,0,1,144.66,341.93Z"/><path d="M145,342.26a.92.92,0,0,1-.68.29,2.71,2.71,0,0,1-.46,0l-.72-.12a6.84,6.84,0,0,0-1.43,0,4.79,4.79,0,0,1-.82,0,1.22,1.22,0,0,1-.85-.52,1.71,1.71,0,0,1-.33-.84,1,1,0,0,1,.09-.52.58.58,0,0,1,.51-.33,3.39,3.39,0,0,1,.81.14,4.18,4.18,0,0,0,.71.09,3.59,3.59,0,0,0,1.41-.25,1.72,1.72,0,0,1,.77-.2.88.88,0,0,1,.63.5,1.39,1.39,0,0,1,0,1.46Zm-.37-.33a1.34,1.34,0,0,0-.1-1.4.73.73,0,0,0-.53-.37,1.57,1.57,0,0,0-.66.24,3.71,3.71,0,0,1-1.51.39,14.38,14.38,0,0,1-1.47-.1c-.17-.06-.11.55.17.81a.52.52,0,0,0,.41.21,6.21,6.21,0,0,0,.68-.1,7.68,7.68,0,0,1,1.59-.1c.26,0,.53,0,.77.07h.29c.07,0,0,0,0,0Z"/><path class="cls-4" d="M142.09,343.93c-.46,0-.54-.6-1.6-1.61-.83-.8-1.32-.94-1.28-1.3s.76-.77,1.29-.63.42.48,1,1c.79.7,1.42.49,1.61,1A1.39,1.39,0,0,1,142.09,343.93Z"/><path d="M142.11,344.43a.91.91,0,0,1-.65-.25,2,2,0,0,1-.29-.34l-.39-.56a6.85,6.85,0,0,0-.88-1l-.51-.45-.29-.27a.72.72,0,0,1-.2-.57,1,1,0,0,1,.61-.73,1.63,1.63,0,0,1,.82-.16,1,1,0,0,1,.75.44,4.07,4.07,0,0,0,.38.55,2.64,2.64,0,0,0,1.09.72.92.92,0,0,1,.6.47,1,1,0,0,1-.05.74,1.37,1.37,0,0,1-1,.9Zm0-.5A1.3,1.3,0,0,0,143,343a.94.94,0,0,0,0-.62c-.08-.18-.29-.24-.51-.3a3,3,0,0,1-1.28-.7,5.74,5.74,0,0,1-.47-.55.46.46,0,0,0-.42-.2,1,1,0,0,0-.52.16c-.16.08-.28.25-.26.29a3.1,3.1,0,0,0,.3.24c.18.13.38.27.57.42a9.18,9.18,0,0,1,1.07,1l.46.55a1.59,1.59,0,0,0,.17.18s0,0,0,0Z"/><path class="cls-4" d="M138.35,344.7c-.29-.36.16-.79.35-2.25.14-1.07,0-1.44.28-1.79s1.37-.49,1.62-.14-.49.92-.55,2.15c-.05,1,.45,1.41.17,1.86A1.38,1.38,0,0,1,138.35,344.7Z"/><path d="M138,345a1,1,0,0,1-.18-.73,2.36,2.36,0,0,1,.12-.45,7.3,7.3,0,0,0,.23-.71,6.7,6.7,0,0,0,.25-1.42,5,5,0,0,1,.1-.84,1.21,1.21,0,0,1,.7-.73,1.85,1.85,0,0,1,.9-.13,1.45,1.45,0,0,1,.47.13.68.68,0,0,1,.36.48c0,.46-.21.61-.3.85a3.49,3.49,0,0,0-.29.66,2.67,2.67,0,0,0,0,1.43,2,2,0,0,1,.1.8.86.86,0,0,1-.57.57,1.4,1.4,0,0,1-1.46-.23Zm.39-.32a1.33,1.33,0,0,0,1.41.11.69.69,0,0,0,.44-.49,1.9,1.9,0,0,0-.16-.69A3,3,0,0,1,140,342a3.76,3.76,0,0,1,.25-.76c.1-.22.24-.51.2-.58s-.17-.14-.37-.13a1.1,1.1,0,0,0-.59.14.5.5,0,0,0-.31.34,5,5,0,0,0,0,.69,7.88,7.88,0,0,1-.15,1.6c0,.26-.12.53-.18.77a1.49,1.49,0,0,0-.06.29c0,.07,0,0,0,0Z"/><path class="cls-4" d="M135.15,347.8l-.13,0a1.67,1.67,0,0,1-.92-1.9.83.83,0,0,1,0-.15,2,2,0,0,1,1.34-.89l.09,0c.43.17.43.62.62,1.08s.56.53.49.83A1.78,1.78,0,0,1,135.15,347.8Z"/><path d="M135.1,348.29a1.59,1.59,0,0,1-1.16-.9,2.52,2.52,0,0,1-.24-1.25c0-.1,0-.21.05-.31a1.16,1.16,0,0,1,.15-.38,1.81,1.81,0,0,1,.47-.45,2.9,2.9,0,0,1,.52-.29,1.11,1.11,0,0,1,.69-.11.85.85,0,0,1,.53.48,3.76,3.76,0,0,1,.17.55,1.91,1.91,0,0,0,.48.89.6.6,0,0,1-.16.61,1.83,1.83,0,0,1-.43.36,1.64,1.64,0,0,1-1,.31Zm.05-.49a1.67,1.67,0,0,0,.95-.41,1.53,1.53,0,0,0,.35-.37c.09-.13.15-.33.1-.37a2.86,2.86,0,0,1-.37-.39,2.81,2.81,0,0,1-.26-.52c-.12-.35-.26-.64-.45-.65a1.6,1.6,0,0,0-.72.4,1.57,1.57,0,0,0-.27.33c0,.05,0,.08,0,.12a1.55,1.55,0,0,0,0,.22c0,.61.42,1.16.75,1.14Z"/><path class="cls-4" d="M132,349.73h0a.23.23,0,0,1-.09,0,6.6,6.6,0,0,1-.41-.91c-.22-.48-.55-.61-.5-1a.29.29,0,0,1,0-.16,1.92,1.92,0,0,1,1.33-.88l.1,0a1.94,1.94,0,0,1,1.1,1.76.74.74,0,0,1,0,.15A1.77,1.77,0,0,1,132,349.73Z"/><path d="M132,350.23l-.23-.06a.62.62,0,0,1-.19-.11l-.06-.07-.06-.08,0-.1-.1-.28-.17-.5a1.69,1.69,0,0,0-.19-.38,1.5,1.5,0,0,1-.31-.63.94.94,0,0,1,.26-.77,2.37,2.37,0,0,1,.47-.39,2.73,2.73,0,0,1,.54-.27l.32-.08a.72.72,0,0,1,.39.08,2.1,2.1,0,0,1,1.08,1.94c0,.46-.36.71-.63.9a1.65,1.65,0,0,1-1,.3Zm.05-.5a1.54,1.54,0,0,0,.94-.4c.25-.21.54-.5.46-.79a1.75,1.75,0,0,0-1-1.49c-.29-.12-1.21.69-1,.84a5.2,5.2,0,0,1,.57.8l.22.49.11.2v0s0,0,0,0l0-.05a.44.44,0,0,0-.15-.08s0,0,0,0Z"/><path class="cls-4" d="M178.21,336.16c.71.77-.14,2.6-1,4.44s-1.39,3-2.47,3.95a9.14,9.14,0,0,1-5.92,2,12.11,12.11,0,0,1-8.39-2.47c-1.22-1-1-1.36-3.95-6.42-2.72-4.64-4-6.24-3.45-6.91s2-.17,3,.5c1.12.78,1.42,1.92,2,3.45a25.32,25.32,0,0,0,2.47,5.43,9.35,9.35,0,0,0,7.9,3.95c.63,0,3.87-.22,5.42-2.47,1.44-2.08.38-4.41,2-5.43A2.17,2.17,0,0,1,178.21,336.16Z"/><path d="M178.57,335.82a1.88,1.88,0,0,1,.37,1.55,6.23,6.23,0,0,1-.35,1.27c-.29.79-.64,1.52-1,2.25s-.68,1.47-1.1,2.19a6.9,6.9,0,0,1-1.65,2,8.57,8.57,0,0,1-4.68,1.79,16.33,16.33,0,0,1-4.93-.15,11,11,0,0,1-4.54-2,5.58,5.58,0,0,1-1.7-1.88l-1.14-2.14q-1.16-2.12-2.38-4.19c-.81-1.4-1.69-2.74-2.44-4.2a2.79,2.79,0,0,1-.37-1.28.82.82,0,0,1,.49-.65,1.44,1.44,0,0,1,.69-.12,4.18,4.18,0,0,1,3.79,2.93l.81,2.29a23.5,23.5,0,0,0,2,4.36,9.32,9.32,0,0,0,3.51,3.14,8.69,8.69,0,0,0,4.61,1,7.58,7.58,0,0,0,4.43-1.58,4.45,4.45,0,0,0,1.31-2,13.37,13.37,0,0,0,.43-2.37,3.72,3.72,0,0,1,.33-1.17,2.05,2.05,0,0,1,.87-.83,2.13,2.13,0,0,1,2.29.12Zm-.36.34a2.11,2.11,0,0,0-2.28-.09,1.9,1.9,0,0,0-.83.83,3.23,3.23,0,0,0-.32,1.15,14,14,0,0,1-.4,2.39,4.4,4.4,0,0,1-1.32,2,7.74,7.74,0,0,1-4.5,1.68,8.83,8.83,0,0,1-4.73-1,9.55,9.55,0,0,1-3.66-3.19,23.2,23.2,0,0,1-2.07-4.4l-.84-2.27a3.73,3.73,0,0,0-3.42-2.61c-.37,0-.68.11-.69.35a2.48,2.48,0,0,0,.33,1c.75,1.39,1.66,2.74,2.48,4.13s1.66,2.77,2.44,4.18l1.17,2.11a4.79,4.79,0,0,0,1.54,1.66,10.31,10.31,0,0,0,4.27,1.79,16.08,16.08,0,0,0,4.7.09,7.75,7.75,0,0,0,4.21-1.66,10,10,0,0,0,2.46-3.88c.34-.73.67-1.45.93-2.18a5,5,0,0,0,.28-1.07.94.94,0,0,0-.12-.73Z"/><ellipse class="cls-1" cx="144.02" cy="310.69" rx="10.5" ry="51.5"/><path class="cls-6" d="M151.81,297.13c3.56,2.52,7.71-2.77,17.46-1.49,6,.8,7.42,3.22,10.41,2.06,5.64-2.19,8.61-13.87,4.46-18.34-2-2.19-5.63-2.43-12.83-2.91-2.3-.15-4.06-.12-5.75-.09-6.55.12-9.82.18-11.66,1.29C148.22,281.09,147.26,293.91,151.81,297.13Z"/><path d="M151.93,297a3.61,3.61,0,0,0,2.9.51,15.07,15.07,0,0,0,3-1,32.29,32.29,0,0,1,6.28-2.17,18.67,18.67,0,0,1,6.83-.15,18.33,18.33,0,0,1,3.35.87c1.07.38,2.08.87,2.89,1.19a2.86,2.86,0,0,0,2.11.14,4.78,4.78,0,0,0,1.17-.51,6.47,6.47,0,0,0,1.12-.81,11.6,11.6,0,0,0,3.19-5,13.34,13.34,0,0,0,.56-6.07c-.32-2-1.33-3.84-2.92-4.54s-3.7-.78-5.76-.88-4.24-.17-6.33-.15l-3.12.06-1.55,0-1.6.08c-2.12.11-4.26.14-6.22.32a9.89,9.89,0,0,0-2.52.46,1.27,1.27,0,0,0-.42.21l-.47.31c-.32.2-.59.54-.91.79a15,15,0,0,0-2.8,4.86,16.23,16.23,0,0,0-1.06,6A7.1,7.1,0,0,0,151.93,297Zm-.23.33a9.81,9.81,0,0,1-3.15-5.71,21.3,21.3,0,0,1-.45-6.73,14.28,14.28,0,0,1,.26-1.72,11.74,11.74,0,0,1,.47-1.71,12.18,12.18,0,0,1,.68-1.69,18.37,18.37,0,0,1,1-1.62,9.06,9.06,0,0,1,3.16-2.65,12.33,12.33,0,0,1,3.71-.92,54.92,54.92,0,0,1,6.59-.25c2.11,0,4.38.15,6.55.25,1.11,0,2.15.18,3.22.29s2.15.24,3.23.44a26.54,26.54,0,0,1,3.29.71,11.21,11.21,0,0,1,3.29,1.48,6.76,6.76,0,0,1,2.3,2.89,11,11,0,0,1,.83,3.36,20.28,20.28,0,0,1-.68,6.6,18.48,18.48,0,0,1-1.07,3.17c-.2.53-.5,1-.75,1.54s-.6,1-1,1.46a8.68,8.68,0,0,1-1.24,1.34,7.76,7.76,0,0,1-1.59,1.11,5.24,5.24,0,0,1-2,.61,6.29,6.29,0,0,1-2.11-.17c-1.23-.31-2.17-.7-3.12-1a29.2,29.2,0,0,0-2.84-.78,33.32,33.32,0,0,0-5.93-.8,25,25,0,0,0-6.21.62c-1.05.2-2.11.48-3.21.59A4.5,4.5,0,0,1,151.7,297.3Z"/><path class="cls-6" d="M97,243.35c-6.15,15.07,19.34,50.75,50.74,50.75,31,0,56.8-34.74,50.75-50.75-7.05-18.65-57.9-13.38-65.39-12.6C116.47,232.47,100.72,234.1,97,243.35Z"/><path d="M97.13,243.42a15.88,15.88,0,0,0-.58,8.18,30.79,30.79,0,0,0,2.61,7.88,46.19,46.19,0,0,0,4.28,7.12A59.61,59.61,0,0,0,108.7,273c7.62,7.93,16.8,14.38,27.14,17.69a42.89,42.89,0,0,0,7.92,1.81,17.09,17.09,0,0,0,2,.22c.68,0,1.36.1,2,.13,1.36,0,2.73,0,4.09-.09s2.72-.28,4.09-.46,2.71-.49,4-.87a45.38,45.38,0,0,0,7.78-2.86A57.55,57.55,0,0,0,192,266.34a39.12,39.12,0,0,0,5.56-15.12,15.27,15.27,0,0,0-.82-7.42,13,13,0,0,0-4.77-5.48,28,28,0,0,0-7.1-3.31,53,53,0,0,0-7.89-1.87c-2.7-.43-5.42-.78-8.16-1s-5.51-.36-8.28-.46c-11.09-.37-22.19.35-33.39,1a109.56,109.56,0,0,0-16.6,2,29.75,29.75,0,0,0-7.78,2.84A12.68,12.68,0,0,0,97.13,243.42Zm-.37-.15a13.44,13.44,0,0,1,5.67-6.23,34.45,34.45,0,0,1,7.8-3.39,126.17,126.17,0,0,1,16.58-3.56c5.56-.88,11.15-1.74,16.8-2.15s11.32-.6,17-.54A105.84,105.84,0,0,1,177.68,229a57.38,57.38,0,0,1,8.42,2.21,31.7,31.7,0,0,1,8,4,16.26,16.26,0,0,1,5.89,7.24,17.85,17.85,0,0,1,.71,9.15,31.78,31.78,0,0,1-2.62,8.39,51.06,51.06,0,0,1-4.27,7.49,67.41,67.41,0,0,1-11.38,12.68,66.21,66.21,0,0,1-6.73,5.19,59.08,59.08,0,0,1-7.32,4.32c-1.26.66-2.57,1.22-3.87,1.8s-2.65,1.05-4,1.47-2.74.82-4.12,1.2-2.81.62-4.24.77-2.87.3-4.31.4c-.72,0-1.45,0-2.17,0a19.59,19.59,0,0,1-2.17-.08,42.92,42.92,0,0,1-8.58-1.4,50.33,50.33,0,0,1-15.64-7.41,57.94,57.94,0,0,1-12.47-11.84,58.82,58.82,0,0,1-8.58-14.73,35.91,35.91,0,0,1-2.21-8.2A16.86,16.86,0,0,1,96.76,243.27Z"/><path class="cls-2" d="M97,243.69H198.44q-16.92-66.83-33.83-133.64l-35,.13Q113.29,176.93,97,243.69Z"/><path d="M97.1,243.57l25.89-.69,25.38-.58,12.56-.21,12.51-.13q6.26-.06,12.5-.05c4.16,0,8.32,0,12.5.1l-1.63,2.09-7.75-33.59q-3.81-16.81-8.14-33.49c-1.41-5.56-2.89-11.12-4.37-16.67L172,143.73l-4.57-16.62L163,110.47l1.64,1.27c-11.65.23-23.31.3-35,.46l1.95-1.54q-3.87,16.53-8,33c-2.79,11-5.6,21.93-8.51,32.94s-5.86,22.07-8.88,33.23Zm-.31.24,7.24-33c2.43-11.08,4.91-22.28,7.47-33.52s5.18-22.53,7.83-33.82,5.48-22.57,8.35-33.8l.4-1.54h1.55c11.66.07,23.32,0,35,.19H166l.3,1.27,4,16.76,3.88,16.8L178,160c1.35,5.58,2.69,11.17,4.09,16.74,2.78,11.15,5.68,22.26,8.78,33.33l9.17,33.23.57,2.06-2.2,0c-4.28.06-8.58.11-12.87.09s-8.59,0-12.88-.05l-12.86-.12L147,245.08l-25.37-.58Z"/><circle class="cls-7" cx="148.02" cy="66.69" r="64"/><path d="M84.22,66.69a63.27,63.27,0,0,0,1.3,12.43A58.92,58.92,0,0,0,89.37,91a63,63,0,0,0,14.29,20.08,68.36,68.36,0,0,0,9.69,7.53c.88.52,1.74,1.08,2.62,1.58s1.78,1,2.69,1.46,1.81.93,2.74,1.35,1.86.85,2.8,1.22A66.17,66.17,0,0,0,148,129a62.71,62.71,0,0,0,35.1-9.8,60.72,60.72,0,0,0,27.81-52.53,63.7,63.7,0,0,0-19-43.93A62.91,62.91,0,0,0,148,4.82,64.75,64.75,0,0,0,103.7,22.37a62.46,62.46,0,0,0-14.3,20,59.07,59.07,0,0,0-3.86,11.85A63.21,63.21,0,0,0,84.22,66.69Zm-.4,0A68.65,68.65,0,0,1,88.38,42,65.7,65.7,0,0,1,101.84,20.5a62.68,62.68,0,0,1,21-14.73,64.66,64.66,0,0,1,50.53-.14A66.17,66.17,0,0,1,194.61,20.1a64.21,64.21,0,0,1,18.51,46.59A67.8,67.8,0,0,1,184,120.59a64.79,64.79,0,0,1-36,11.76,62,62,0,0,1-46.14-19.52A65.28,65.28,0,0,1,88.41,91.38,69,69,0,0,1,83.82,66.69Z"/><circle cx="178.02" cy="7.69" r="5"/><path d="M172.82,7.69c0-.68,0-1.36.12-2.11a6.35,6.35,0,0,1,.65-2.33,4.2,4.2,0,0,1,1.84-1.82A4.4,4.4,0,0,1,178,1a5.13,5.13,0,0,1,2.34,1A10.37,10.37,0,0,1,182,3.7a10,10,0,0,1,2.1,4,5.54,5.54,0,0,1,0,2.53,5.68,5.68,0,0,1-1.23,2.34A6.21,6.21,0,0,1,178,14.83a6,6,0,0,1-2.65-.73,4.59,4.59,0,0,1-1.82-1.94,6.57,6.57,0,0,1-.64-2.35A19.5,19.5,0,0,1,172.82,7.69Zm.4,0a2.63,2.63,0,0,0,.68,1.71,3.19,3.19,0,0,0,1.53.88,7.94,7.94,0,0,0,1.42.24,5.13,5.13,0,0,0,1.17,0,4.5,4.5,0,0,0,2.2-.66,5.1,5.1,0,0,0,1.71-2.2A2.92,2.92,0,0,0,182,6a2.6,2.6,0,0,0-.92-1.42,2.56,2.56,0,0,0-1.58-.52,5.21,5.21,0,0,0-1.5.27c-.87.28-1.54.4-2.63.7a3.35,3.35,0,0,0-1.52.91A2.52,2.52,0,0,0,173.22,7.69Z"/><path class="cls-2" d="M209,86.69c11.65,1.18,53,4.79,72-6,2.86-1.63,8.66-4.92,9-10s-5-10.12-10-12c-4.6-1.73-8.78-.78-12,0-8.28,2-8.92,5.64-17,9-7.3,3-13.87,3-21,3a75.24,75.24,0,0,1-17-2"/><path d="M209,86.49l21.7.08c1.8,0,3.6,0,5.4,0s3.6,0,5.39-.1c3.59-.12,7.17-.24,10.75-.4,7.13-.33,14.39-.67,21.26-2.81.85-.26,1.7-.55,2.53-.88a25.16,25.16,0,0,0,2.46-1,38.05,38.05,0,0,0,4.63-2.67,25.69,25.69,0,0,0,2.1-1.59,16.61,16.61,0,0,0,1.8-1.86,7.69,7.69,0,0,0,1.84-4.36,7.31,7.31,0,0,0-1.37-4.38,14.74,14.74,0,0,0-3.41-3.51,17.81,17.81,0,0,0-4.29-2.4,13.66,13.66,0,0,0-4.68-.91,20,20,0,0,0-4.9.6,31.38,31.38,0,0,0-4.86,1.49,22.36,22.36,0,0,0-4.29,2.42c-1.4,1-2.91,2.18-4.58,3.16a35.37,35.37,0,0,1-10.7,4.12,48.32,48.32,0,0,1-11.19.84c-1.85,0-3.64-.13-5.48-.24s-3.68-.3-5.5-.57A64.5,64.5,0,0,1,213,68.88l.09-.39c1.8.24,3.59.46,5.38.61s3.59.23,5.38.29,3.58,0,5.35,0l5.39-.25a53.13,53.13,0,0,0,10.36-1.48,34.14,34.14,0,0,0,9.37-4c1.43-.89,2.8-1.91,4.35-3a21.86,21.86,0,0,1,5.2-2.81,35.28,35.28,0,0,1,5.58-1.49,24.1,24.1,0,0,1,5.87-.48,16.77,16.77,0,0,1,5.88,1.4,18.85,18.85,0,0,1,5,3.19,16.1,16.1,0,0,1,3.73,4.61,9.78,9.78,0,0,1,1.2,6,9.62,9.62,0,0,1-2.73,5.28,23.12,23.12,0,0,1-4.45,3.45,49.51,49.51,0,0,1-10,4.69,101.86,101.86,0,0,1-21.4,4.89,100.33,100.33,0,0,1-10.95.62c-1.82,0-3.65,0-5.47,0s-3.65-.14-5.46-.24A153.12,153.12,0,0,1,209,86.89Z"/><path d="M90,49.69a7.28,7.28,0,0,0,2.23,5.38,19.39,19.39,0,0,0,5.64,4A38.22,38.22,0,0,0,112,62.69,39.27,39.27,0,0,1,97.13,61a21.9,21.9,0,0,1-6.94-3.7,17,17,0,0,1-1.51-1.44c-.23-.27-.44-.56-.66-.85a6.25,6.25,0,0,1-.62-.9A10.08,10.08,0,0,1,86,49.69Z"/><path class="cls-7" d="M151,75.69c9.85.6,17.54,3.51,18,7,.49,3.78-7.39,9.31-20,12"/><path d="M151,75.49a16.49,16.49,0,0,1,5.8-.72,20.29,20.29,0,0,1,2.9.34,11.82,11.82,0,0,1,2.8.88,23.66,23.66,0,0,1,4.91,3.46,7.31,7.31,0,0,1,2,2.38,5.88,5.88,0,0,1,.27.84,8.57,8.57,0,0,1,.09.9l-.11.87a7.84,7.84,0,0,1-.23.83,10.88,10.88,0,0,1-3.85,4.94,20.51,20.51,0,0,1-5.1,3.06,24.23,24.23,0,0,1-5.64,1.5,20.69,20.69,0,0,1-5.83.11l-.09-.39c1.67-1.07,3.35-1.87,5-2.73l4.85-2.39c1.59-.77,3.2-1.46,4.71-2.29a11,11,0,0,0,1.1-.65c.37-.22.71-.45,1-.68a9.15,9.15,0,0,0,1.88-1.51,2.05,2.05,0,0,0,.66-1.93,3.35,3.35,0,0,0-1.54-1.83c-1.49-1-3.42-1-5.15-1.31a49.35,49.35,0,0,1-5.19-1.32,34.86,34.86,0,0,1-5.32-2Z"/><line class="cls-4" x1="88.02" y1="88.22" x2="112.02" y2="88.69"/><polygon points="88.06 86.22 112.03 88.69 87.99 90.22 88.06 86.22"/><path class="cls-6" d="M128.81,302.13c3.56,2.52,7.71-2.77,17.46-1.49,6,.8,7.42,3.22,10.41,2.06,5.64-2.19,8.61-13.87,4.46-18.34-2-2.19-5.63-2.43-12.83-2.91-2.3-.15-4.06-.12-5.75-.09-6.55.12-9.82.18-11.66,1.29C125.22,286.09,124.26,298.91,128.81,302.13Z"/><path d="M128.93,302a3.61,3.61,0,0,0,2.9.51,15.07,15.07,0,0,0,3-1,32.29,32.29,0,0,1,6.28-2.17,18.67,18.67,0,0,1,6.83-.15,18.33,18.33,0,0,1,3.35.87c1.07.38,2.08.87,2.89,1.19a2.86,2.86,0,0,0,2.11.14,4.78,4.78,0,0,0,1.17-.51,6.47,6.47,0,0,0,1.12-.81,11.6,11.6,0,0,0,3.19-5,13.34,13.34,0,0,0,.56-6.07c-.32-2-1.33-3.84-2.92-4.54s-3.7-.78-5.76-.88-4.24-.17-6.33-.15l-3.12.06-1.55,0-1.6.08c-2.12.11-4.26.14-6.22.32a9.89,9.89,0,0,0-2.52.46,1.27,1.27,0,0,0-.42.21l-.47.31c-.32.2-.59.54-.91.79a15,15,0,0,0-2.8,4.86,16.23,16.23,0,0,0-1.06,6A7.1,7.1,0,0,0,128.93,302Zm-.23.33a9.81,9.81,0,0,1-3.15-5.71,21.3,21.3,0,0,1-.45-6.73,14.28,14.28,0,0,1,.26-1.72,11.74,11.74,0,0,1,.47-1.71,12.18,12.18,0,0,1,.68-1.69,18.37,18.37,0,0,1,1-1.62,9.06,9.06,0,0,1,3.16-2.65,12.33,12.33,0,0,1,3.71-.92,54.92,54.92,0,0,1,6.59-.25c2.11,0,4.38.15,6.55.25,1.11,0,2.15.18,3.22.29s2.15.24,3.23.44a26.54,26.54,0,0,1,3.29.71,11.21,11.21,0,0,1,3.29,1.48,6.76,6.76,0,0,1,2.3,2.89,11,11,0,0,1,.83,3.36,20.28,20.28,0,0,1-.68,6.6,18.48,18.48,0,0,1-1.07,3.17c-.2.53-.5,1-.75,1.54s-.6,1-1,1.46a8.68,8.68,0,0,1-1.24,1.34,7.76,7.76,0,0,1-1.59,1.11,5.24,5.24,0,0,1-2,.61,6.29,6.29,0,0,1-2.11-.17c-1.23-.31-2.17-.7-3.12-1a29.2,29.2,0,0,0-2.84-.78,33.32,33.32,0,0,0-5.93-.8,25,25,0,0,0-6.21.62c-1.05.2-2.11.48-3.21.59A4.5,4.5,0,0,1,128.7,302.3Z"/><path class="cls-2" d="M170.83,127.1c-3.36,3.7,9.3,13.6,15.08,39.06,5,21.89-.14,33.35,5,35.66,7.8,3.49,32.62-16.87,31.13-38.53C220.14,135.6,176.29,121.09,170.83,127.1Z"/><path d="M171,127.23a2.78,2.78,0,0,0-.23,2.81,17.29,17.29,0,0,0,1.34,2.82c1,1.82,2.17,3.61,3.32,5.4a126.17,126.17,0,0,1,6.41,11.08,73.58,73.58,0,0,1,4.7,12A75.92,75.92,0,0,1,189,174a87.79,87.79,0,0,1,.4,12.86l-.26,6.35a21,21,0,0,0,.4,6.09,3.84,3.84,0,0,0,.62,1.19,2.78,2.78,0,0,0,1,.78,4.92,4.92,0,0,0,2.79.25,16,16,0,0,0,5.67-2.18,31.32,31.32,0,0,0,5-3.64,47.87,47.87,0,0,0,4.41-4.37,51.17,51.17,0,0,0,6.91-10.2,40.15,40.15,0,0,0,2.38-5.58,31.36,31.36,0,0,0,1.45-5.82,25.6,25.6,0,0,0-.83-11.65,31.93,31.93,0,0,0-5.62-10.37,49.69,49.69,0,0,0-8.65-8.49,84,84,0,0,0-10.29-6.86,59,59,0,0,0-11.46-5,31.43,31.43,0,0,0-6.14-1.26,14.05,14.05,0,0,0-3.11,0A4.64,4.64,0,0,0,171,127.23Zm-.3-.27a5.16,5.16,0,0,1,3-1.32,18.28,18.28,0,0,1,3.22-.14,40.06,40.06,0,0,1,6.36.79A69,69,0,0,1,195.57,130,52.25,52.25,0,0,1,216.72,145,33.39,33.39,0,0,1,223,156.89a29.72,29.72,0,0,1,.54,13.45,33.16,33.16,0,0,1-1.83,6.41,38.3,38.3,0,0,1-2.9,5.93,49.44,49.44,0,0,1-8.14,10.15,47,47,0,0,1-10.36,7.69,18.89,18.89,0,0,1-6.16,2.2,6.6,6.6,0,0,1-3.44-.33,4,4,0,0,1-1.5-1.1,5.28,5.28,0,0,1-.87-1.59,24.46,24.46,0,0,1-.81-6.49c-.1-2.12-.16-4.23-.31-6.33a116.79,116.79,0,0,0-1.48-12.43c-.7-4.09-1.59-8.15-2.63-12.17-.54-2-1.07-4-1.68-6s-1.24-4-2-5.94a99.5,99.5,0,0,0-4.95-11.58c-.93-1.9-2-3.73-2.92-5.64a22,22,0,0,1-1.26-3,4.68,4.68,0,0,1-.26-1.63A2.45,2.45,0,0,1,170.68,127Z"/><path class="cls-8" d="M258.81,78.73c-2.11-3.89-4.6-6.61-5.57-6.08"/><ellipse class="cls-9" cx="191.06" cy="139.48" rx="8.41" ry="23.82" transform="translate(-26.18 233.11) rotate(-59.45)"/><path d="M211.62,151.61a4.27,4.27,0,0,1-2.76,1.82,13.11,13.11,0,0,1-3.36.26,30,30,0,0,1-6.64-1.14,50.25,50.25,0,0,1-12.28-5.47A62.29,62.29,0,0,1,176,138.87a32.81,32.81,0,0,1-4.34-5.14,12.48,12.48,0,0,1-1.48-3,4.42,4.42,0,0,1,.19-3.45,4.47,4.47,0,0,1,2.89-2,11.78,11.78,0,0,1,3.44-.28,29.36,29.36,0,0,1,6.66,1.26,56.13,56.13,0,0,1,12.29,5.53A52.24,52.24,0,0,1,206.29,140a30.48,30.48,0,0,1,4.2,5.27,12.69,12.69,0,0,1,1.39,3.07A4.27,4.27,0,0,1,211.62,151.61Zm-.09-.05a4.09,4.09,0,0,0,.18-3.2,11,11,0,0,0-1.46-3,28.45,28.45,0,0,0-4.42-4.94,67.94,67.94,0,0,0-10.75-7.78A62.46,62.46,0,0,0,183,127.16a29.71,29.71,0,0,0-6.43-1.36,12,12,0,0,0-3.23.14,3.35,3.35,0,0,0-2.83,4.62,10.58,10.58,0,0,0,1.37,3,26.64,26.64,0,0,0,4.28,5.08A56.56,56.56,0,0,0,187,146.37,71.54,71.54,0,0,0,199.05,152a28.82,28.82,0,0,0,6.46,1.48,11.12,11.12,0,0,0,3.31-.16A4.06,4.06,0,0,0,211.53,151.56Z"/><path d="M101,244.19a13.89,13.89,0,0,0,2.1,7.72,20.25,20.25,0,0,0,5.87,6,32.15,32.15,0,0,0,16.53,5.23,32.84,32.84,0,0,1-17.33-4,22.23,22.23,0,0,1-6.94-6.07,16.53,16.53,0,0,1-3.23-9Z"/><path class="cls-2" d="M87.94,43.89a64,64,0,0,1,120.3,43.74Z"/><path d="M87.76,44c.31-1,.62-2.06,1-3.14s.77-2,1.16-3S90.79,36,91.23,35s1-1.87,1.47-2.82A61.59,61.59,0,0,1,100,21.73,63.47,63.47,0,0,1,145.2,0a60.12,60.12,0,0,1,12.85.89,65.92,65.92,0,0,1,33.71,17.15,68.81,68.81,0,0,1,15,20.31A66.61,66.61,0,0,1,213.3,62.9a62.87,62.87,0,0,1-3.4,25.34l-.58,1.66-1.69-.6L177.08,78.51,161.85,73l-15.12-5.71c-10-3.84-20-7.7-29.83-11.61l-14.7-5.82Zm.36-.17,15.63,5.1L119.13,54c10.23,3.39,20.29,6.82,30.31,10.26l15,5.23,14.84,5.37L208.84,86,206.57,87a65,65,0,0,0,4.19-24,61.86,61.86,0,0,0-5.32-24,59.88,59.88,0,0,0-14.57-20A60.85,60.85,0,0,0,169.53,6.79a66.29,66.29,0,0,0-24.17-3.2A65.27,65.27,0,0,0,94,33c-.55.87-1.12,1.74-1.65,2.63s-1,1.8-1.54,2.71L89.43,41.1Z"/><path class="cls-3" d="M157,343.72c-.42-.35,1.7-2.58,2.48-6,.47-2.08.3-4,.1-4s-.54,2.29-1.8,5.83c-.88,2.46-1.31,3.69-1.63,3.64-.62-.11-.42-5.1,1.39-9,.47-1,1-1.73,1.7-1.85a2.29,2.29,0,0,1,2.11,1.27c.2.36.57,1.25-.86,5.25-.43,1.18-.83,2.14-1.11,2.79a3.57,3.57,0,0,1-1.71,1.85C157.34,343.7,157.1,343.82,157,343.72Z"/><path d="M156.67,344.1a.92.92,0,0,1-.21-.34.69.69,0,0,1,0-.24,1.31,1.31,0,0,1,.07-.31,3.89,3.89,0,0,1,.18-.4c.12-.23.25-.45.37-.66.25-.42.49-.84.71-1.26a14.35,14.35,0,0,0,1.1-2.63,11.91,11.91,0,0,0,.49-2.79,6.84,6.84,0,0,0-.05-1.37.81.81,0,0,0,0-.11l0,0a.3.3,0,0,0,.22.11.3.3,0,0,0,.27-.1l0,0,0,.06a.58.58,0,0,0-.05.14l-.2.69a52.6,52.6,0,0,1-1.79,5.63l-.53,1.38a5.28,5.28,0,0,1-.71,1.4.45.45,0,0,1-.36.17.42.42,0,0,1-.37-.23,1.32,1.32,0,0,1-.16-.44,5.24,5.24,0,0,1-.07-.77,12.36,12.36,0,0,1,.07-1.5,20.6,20.6,0,0,1,1.45-5.74,12.81,12.81,0,0,1,.66-1.34,2.68,2.68,0,0,1,1.08-1.11,1.67,1.67,0,0,1,1.54.14,2.94,2.94,0,0,1,1.08,1.08,2.55,2.55,0,0,1,.17,1.51,12,12,0,0,1-.29,1.45,24.71,24.71,0,0,1-.94,2.79c-.38.91-.73,1.82-1.14,2.72a3,3,0,0,1-2.25,1.68Zm.32-.38c.23.1.46-.1.68-.18a2.79,2.79,0,0,0,.61-.4,3.52,3.52,0,0,0,.9-1.13c.4-.89.72-1.82,1.08-2.73a25.06,25.06,0,0,0,.88-2.79,12.31,12.31,0,0,0,.26-1.43,2.28,2.28,0,0,0-.18-1.36c-.45-.78-1.45-1.45-2.27-1.06a4.54,4.54,0,0,0-1.52,2.3,19.94,19.94,0,0,0-1.3,5.64,11.6,11.6,0,0,0,0,1.44,3.72,3.72,0,0,0,.08.68.9.9,0,0,0,.08.25s0,0-.08,0-.07,0-.06,0a5.8,5.8,0,0,0,.57-1.22l.49-1.38a52.23,52.23,0,0,0,1.65-5.61l.2-.73c0-.06,0-.12.06-.2l0-.11a1,1,0,0,1,.11-.17.44.44,0,0,1,.66,0,1,1,0,0,1,.11.19,1.4,1.4,0,0,1,.06.24,6.93,6.93,0,0,1,.1,1.56,12.1,12.1,0,0,1-.46,3,15.56,15.56,0,0,1-1.1,2.82c-.23.44-.47.88-.71,1.31-.11.21-.23.42-.33.63a2.86,2.86,0,0,0-.12.27s0,.1,0,0,0,0,0-.06a.24.24,0,0,0-.12-.17Z"/><path d="M74.68,370a10.43,10.43,0,0,1,.58-4.6,15.55,15.55,0,0,1,5.43-2.19c2.86-.55,4.43.05,7.4,0a26,26,0,0,0,7.9-1.65c1.32-.41,5.16-1.69,13.81-7.12,6.69-4.19,8.46-5,10.37-7.12a58.76,58.76,0,0,0,4-4.93c3.41-4.78,4.33-7.58,6.41-7.67a4.17,4.17,0,0,1,3,1.64c2.28,2.39,1.15,4.88,3,8.22a11.05,11.05,0,0,0,5.92,4.93c1.34.49,4.58,1.69,6.91,0,3.23-2.33,1.84-8.08,3.95-8.77,1.88-.6,4.64,3.41,5.92,6a22.18,22.18,0,0,1,2,7.67,83.9,83.9,0,0,1,.49,14.25"/><path d="M74.18,370.08a11.11,11.11,0,0,1,.62-4.82l.06-.15L75,365a15.26,15.26,0,0,1,8.2-2.47c1.46,0,2.83.24,4.21.25a18,18,0,0,0,4.08-.38c1.35-.28,2.68-.69,4-1.1a30.41,30.41,0,0,0,3.88-1.49,81.83,81.83,0,0,0,7.39-3.94c2.4-1.42,4.77-2.93,7.17-4.38s4.84-2.85,6.58-5a59.62,59.62,0,0,0,5-6.68c.77-1.17,1.49-2.37,2.34-3.52a4.94,4.94,0,0,1,1.6-1.51,2.62,2.62,0,0,1,2.24,0,5.61,5.61,0,0,1,1.74,1.32,6,6,0,0,1,1.25,1.78,21.27,21.27,0,0,1,1,4.13,10,10,0,0,0,4.75,6.46,15.09,15.09,0,0,0,3.84,1.55,6.7,6.7,0,0,0,4-.08,4.8,4.8,0,0,0,2.62-3,30.2,30.2,0,0,0,.91-4.08,3.51,3.51,0,0,1,.92-1.94,1.79,1.79,0,0,1,2.08.13,11.26,11.26,0,0,1,2.85,3.11,21.16,21.16,0,0,1,2,3.72,19.78,19.78,0,0,1,1.11,4.07,81.27,81.27,0,0,1,.8,16.79A81.09,81.09,0,0,0,160.7,352a19.29,19.29,0,0,0-1.13-4,20.51,20.51,0,0,0-2-3.68,11,11,0,0,0-2.81-3,1.58,1.58,0,0,0-1.83-.13,3.33,3.33,0,0,0-.82,1.81,29.73,29.73,0,0,1-.9,4.12,5,5,0,0,1-2.75,3.17,7,7,0,0,1-4.24.12,15.41,15.41,0,0,1-4-1.56,10.35,10.35,0,0,1-5-6.68,21.47,21.47,0,0,0-.95-4,6,6,0,0,0-1.17-1.64,5.06,5.06,0,0,0-1.6-1.19,2.07,2.07,0,0,0-1.82,0,4.41,4.41,0,0,0-1.42,1.37c-.82,1.11-1.53,2.33-2.3,3.5a60.48,60.48,0,0,1-5,6.79,16,16,0,0,1-3.14,2.9c-1.16.82-2.36,1.55-3.55,2.29-2.39,1.47-4.74,3-7.15,4.45a84.27,84.27,0,0,1-7.43,4,29.42,29.42,0,0,1-4,1.55,41.62,41.62,0,0,1-4.08,1.16,19.22,19.22,0,0,1-4.27.43c-1.44,0-2.85-.21-4.2-.22a14.3,14.3,0,0,0-7.68,2.38l.19-.25a10.12,10.12,0,0,0-.54,4.39Z"/><rect class="cls-4" x="122.63" y="352.51" width="4.44" height="19.25" transform="translate(-164.34 110.94) rotate(-30)"/><path d="M127.58,371.29l.29-.19c1.17-.76,2.29-1.46,3.49-2.13l-.16.62-9.45-16.77.34.09-3.87,2.18.08-.28Zm.35.6-.19-.31L117.94,355l-.1-.18.18-.1,3.82-2.26.21-.13.13.22,9.8,16.56.23.39-.39.23C130.55,370.5,129.23,371.22,127.93,371.89Z"/><rect class="cls-4" x="115.23" y="356.96" width="4.44" height="19.25" transform="translate(-167.55 107.84) rotate(-30)"/><path d="M120.18,375.73l.29-.19c1.17-.76,2.29-1.46,3.49-2.13l-.16.62-9.45-16.77.34.09-3.87,2.18.07-.28Zm.35.6-.19-.31-9.8-16.56-.1-.18.18-.1,3.82-2.26.21-.13.13.22,9.8,16.57.23.38-.4.23C123.15,375,121.83,375.66,120.53,376.33Z"/><rect class="cls-4" x="130.04" y="348.07" width="4.44" height="19.25" transform="translate(-161.13 114.05) rotate(-30)"/><path d="M135,366.85l.3-.19c1.16-.76,2.29-1.46,3.49-2.13l-.17.62-9.45-16.77.34.09-3.87,2.18.08-.28Zm.35.6-.18-.31-9.8-16.57-.11-.17.18-.1,3.82-2.27.22-.12.13.22,9.79,16.56.23.39-.39.23C138,366.06,136.63,366.78,135.33,367.45Z"/><path class="cls-5" d="M157.18,344.62c2.17,0,3.59,5.53,3.95,6.91.66,2.57,1.17,6.39,0,6.91-.66.29-1.26-.72-2.47-.5s-1.28,1.34-2.47,2c-1.73.92-4.39.05-5.92-1.48-.21-.22-2.07-2.13-1.48-3.46.66-1.48,3.46-.27,4.93-2s-.37-4.3,1.49-6.91C155.55,345.61,156.26,344.61,157.18,344.62Z"/><path d="M157.18,344.12a2.38,2.38,0,0,1,1.62.82,6.23,6.23,0,0,1,.91,1.3,16.84,16.84,0,0,1,1.15,2.8,28.24,28.24,0,0,1,1.26,5.82,7.72,7.72,0,0,1-.18,3.08,1.4,1.4,0,0,1-.59.75,1.08,1.08,0,0,1-1,0,3.43,3.43,0,0,0-1.27-.47,1.47,1.47,0,0,0-1.13.39c-.31.28-.59.72-1,1.08a3.65,3.65,0,0,1-3,.82,6.85,6.85,0,0,1-4.91-3.24,3.91,3.91,0,0,1-.57-1.43,1.48,1.48,0,0,1,.55-1.46,3.08,3.08,0,0,1,1.47-.41c.5-.05,1-.08,1.45-.17a2.63,2.63,0,0,0,2.11-1.68,9.91,9.91,0,0,0,.15-2.89,5.15,5.15,0,0,1,.72-2.84,5.92,5.92,0,0,1,.9-1.16,1.89,1.89,0,0,1,1.3-.62Zm0,.5a1.89,1.89,0,0,0-1.28.64,6,6,0,0,0-.87,1.18,5,5,0,0,0-.64,2.8,9.45,9.45,0,0,1-.11,2.95,2.83,2.83,0,0,1-2.23,1.86c-1,.24-2,.11-2.79.59a1.16,1.16,0,0,0-.39,1.16,3.53,3.53,0,0,0,.55,1.28,6.42,6.42,0,0,0,4.64,2.94,3.14,3.14,0,0,0,2.53-.73c.33-.3.57-.72,1-1.11a2.14,2.14,0,0,1,1.56-.58,4.21,4.21,0,0,1,1.49.49c.2.08.31.09.41,0s.2-.22.28-.4a7.25,7.25,0,0,0,.07-2.76,27.62,27.62,0,0,0-1.34-5.63,17.42,17.42,0,0,0-1.13-2.61c-.45-.78-1.11-1.58-1.72-1.58Z"/><path d="M74.88,366.34a176.08,176.08,0,0,0,43.37,5.24,173.91,173.91,0,0,0,43.37-5.74,174.52,174.52,0,0,1-21.47,4.49,173.54,173.54,0,0,1-43.84.72,178.94,178.94,0,0,1-21.66-3.74Z"/><path class="cls-4" d="M167.54,372.75c.13-.79-.46-1.17-3-4.44-2-2.65-2.14-3.07-3-3.46-1.68-.79-3.24,0-5.43.49-3.65.85-5.83.16-8.88,0-7.33-.38-14.66,2.54-26.16,4-5.56.68-12.75.46-27.14,0-11.57-.36-13.68-1-15.3-2-.55-.35-2.49-1.65-3.45-1s-.51,2.36-.49,2.47c.73,4.08,11.32,6,17.27,6.91,9.49,1.4,13.86,1.05,25.66,1.48,14.58.52,20.91.51,33.56.49,0,0,3.65,0,10.85-2C165.72,374.72,167.34,373.93,167.54,372.75Z"/><path d="M167.05,372.66a.61.61,0,0,0-.08-.42,4.46,4.46,0,0,0-.39-.57l-.93-1.2c-.64-.8-1.27-1.61-1.88-2.44s-1.22-1.71-1.82-2.38a2.35,2.35,0,0,0-1.12-.58,3.79,3.79,0,0,0-1.35-.05c-.93.13-1.91.47-2.93.71a16.21,16.21,0,0,1-3.11.46,58.44,58.44,0,0,1-6.16-.41,48.36,48.36,0,0,0-12,1.4c-4,.83-8,1.66-12.08,2.22a75.48,75.48,0,0,1-12.29.66c-4.09,0-8.18-.18-12.27-.31s-8.17-.24-12.26-.54a30.58,30.58,0,0,1-6.12-.91,7.19,7.19,0,0,1-1.45-.64c-.45-.28-.86-.55-1.3-.77a4.18,4.18,0,0,0-1.36-.48.87.87,0,0,0-1,.5A2.91,2.91,0,0,0,75,368.3a2.81,2.81,0,0,0,.41,1.34,6.17,6.17,0,0,0,2.18,1.93,25.29,25.29,0,0,0,5.66,2.17,90.46,90.46,0,0,0,12,2.21,118.63,118.63,0,0,0,12.22.81c4.08.1,8.17.21,12.26.37q12.26.48,24.52.5c4.08-.05,8.2.27,12.21-.63,2-.38,4-.85,6-1.39a24.72,24.72,0,0,0,2.91-.95,6.53,6.53,0,0,0,1.36-.71,2,2,0,0,0,.87-1.2Zm.49.09a1.94,1.94,0,0,1-.87,1.21,7,7,0,0,1-1.35.72,27.51,27.51,0,0,1-2.91,1c-2,.55-4,1-6,1.42-4,.92-8.15.63-12.22.69q-12.27.06-24.53-.37c-4.09-.14-8.17-.23-12.26-.31a116.57,116.57,0,0,1-12.25-.75,90.33,90.33,0,0,1-12.09-2.16A25.28,25.28,0,0,1,77.31,372a6.55,6.55,0,0,1-2.37-2.08,3.35,3.35,0,0,1-.48-1.55,3.41,3.41,0,0,1,.19-1.63,1.38,1.38,0,0,1,.63-.68,1.74,1.74,0,0,1,.89-.12,4.62,4.62,0,0,1,1.53.52c.47.23.92.53,1.34.78a5.91,5.91,0,0,0,1.34.58,30.67,30.67,0,0,0,6,.86c4.07.28,8.16.35,12.24.47s8.17.23,12.26.25a73.8,73.8,0,0,0,12.17-.71c4-.58,8-1.43,12-2.28a49.2,49.2,0,0,1,12.25-1.47,57.77,57.77,0,0,0,6.07.37,15.47,15.47,0,0,0,2.94-.44c1-.24,1.93-.58,3-.75a3.88,3.88,0,0,1,3.26.89c.77.84,1.28,1.66,1.92,2.47s1.24,1.61,1.88,2.41l1,1.21a5.83,5.83,0,0,1,.47.71,1.61,1.61,0,0,1,.19,1.05Z"/><path class="cls-4" d="M93,371.76l16.54,1.48c1,.35,1.48.19,1.72,0,1.18-.94,0-5.21-1.48-5.43h-16a2.66,2.66,0,0,0-1.24,1.48A2.84,2.84,0,0,0,93,371.76Z"/><path d="M92.73,371.27l.53.05,16.33,1.61h.07c.6.22,1.32.34,1.57-.07a2.88,2.88,0,0,0,.2-1.82,6,6,0,0,0-.58-1.89,3,3,0,0,0-.54-.79.9.9,0,0,0-.72-.34h0l-15.79-.18h0a2.55,2.55,0,0,0-1.31,1.75A2.66,2.66,0,0,0,92.73,371.27Zm.67,1-.38-.49a2.84,2.84,0,0,1-.59-2.16,2.63,2.63,0,0,1,1.31-1.83h0l15.79-.17h0a1.32,1.32,0,0,1,1.11.44,3.27,3.27,0,0,1,.65.9,6.72,6.72,0,0,1,.68,2,3.32,3.32,0,0,1-.26,2.23,1.27,1.27,0,0,1-1.14.55,3.65,3.65,0,0,1-1.12-.21l.08,0Z"/><path class="cls-4" d="M130.53,372.25l22.21-1a8.25,8.25,0,0,0,.49-3.7c0-.48-.43-4.32-3-5.19a3.75,3.75,0,0,0-2.22,0l-17,1a13.25,13.25,0,0,0-.49,8.88Z"/><path d="M130.44,371.86h.38c7.28-.35,14.56-.64,21.9-.9l-.28.21a8.24,8.24,0,0,0,.54-2.9,9.45,9.45,0,0,0-.51-2.93,4.61,4.61,0,0,0-1.61-2.37,3.16,3.16,0,0,0-2.75-.37h-.05l-17,.85.06-.05A13.14,13.14,0,0,0,130.44,371.86Zm.21.78-.12-.39a13.19,13.19,0,0,1,.43-8.91v0H131l17-1.13h0a3.61,3.61,0,0,1,3.14.38,5.12,5.12,0,0,1,1.84,2.59,9.91,9.91,0,0,1,.59,3.1,9,9,0,0,1-.52,3.13l-.07.19h-.22C145.42,372,138,372.33,130.65,372.64Z"/><path d="M142.11,369.78a.25.25,0,0,0,.26-.12.09.09,0,0,0,0-.07s0,0,0-.14l0-.42.06-1.7.07-1.69a3.34,3.34,0,0,0,0-.73.46.46,0,0,0-.41-.3.49.49,0,0,0-.48.26c-.1.14-.06.46-.09.74l-.06,1.69-.06,1.7a2.79,2.79,0,0,0,0,.82.73.73,0,0,0,.64.46Zm0,.5a.74.74,0,0,1-.69-.43,3.09,3.09,0,0,1-.1-.85l-.06-1.7-.06-1.69,0-.43a1,1,0,0,1,.08-.5,1,1,0,0,1,.88-.57,1,1,0,0,1,.93.58,2.91,2.91,0,0,1,.11.95l.06,1.69.07,1.7v.42a1.43,1.43,0,0,1,0,.28,1,1,0,0,1-.09.34,1.23,1.23,0,0,1-1.11.71Z"/><path d="M144.58,369.78a.25.25,0,0,0,.26-.12.15.15,0,0,0,0-.07s0,0,0-.14l0-.42.06-1.7.06-1.69a3.48,3.48,0,0,0,0-.73.47.47,0,0,0-.41-.3.49.49,0,0,0-.49.26,2.44,2.44,0,0,0-.08.74L144,367.3l-.06,1.7a2.79,2.79,0,0,0,0,.82.71.71,0,0,0,.64.46Zm0,.5a.76.76,0,0,1-.7-.43,2.74,2.74,0,0,1-.09-.85l-.06-1.7-.06-1.69,0-.43a1,1,0,0,1,.08-.5,1,1,0,0,1,.88-.57,1,1,0,0,1,.93.58,3.21,3.21,0,0,1,.11.95l.06,1.69.06,1.7,0,.42a1.43,1.43,0,0,1,0,.28,1.31,1.31,0,0,1-.09.34,1.23,1.23,0,0,1-1.11.71Z"/><path d="M147.54,369.78a.25.25,0,0,0,.26-.12.09.09,0,0,0,0-.07s0,0,0-.14l0-.42.06-1.7.06-1.69a3.48,3.48,0,0,0,0-.73.47.47,0,0,0-.41-.3.5.5,0,0,0-.49.26,2.44,2.44,0,0,0-.08.74l-.06,1.69-.06,1.7a2.79,2.79,0,0,0,0,.82.72.72,0,0,0,.64.46Zm0,.5a.77.77,0,0,1-.7-.43,2.74,2.74,0,0,1-.09-.85l-.06-1.7-.06-1.69,0-.43a1,1,0,0,1,.08-.5,1,1,0,0,1,.88-.57,1,1,0,0,1,.93.58,3.21,3.21,0,0,1,.11.95l.06,1.69.06,1.7,0,.42a1.43,1.43,0,0,1,0,.28,1,1,0,0,1-.09.34,1.23,1.23,0,0,1-1.11.71Z"/><path d="M150,369.29a.25.25,0,0,0,.26-.12l0-.07s0-.05,0-.14l0-.42.06-1.7.06-1.69a3.47,3.47,0,0,0,0-.73.47.47,0,0,0-.41-.31.51.51,0,0,0-.49.26,2.23,2.23,0,0,0-.08.74l-.06,1.7-.06,1.69a2.55,2.55,0,0,0,0,.83.71.71,0,0,0,.64.46Zm0,.5a.75.75,0,0,1-.7-.43,2.83,2.83,0,0,1-.09-.86l-.06-1.69-.06-1.7,0-.42a1.08,1.08,0,0,1,.08-.51,1,1,0,0,1,.88-.57,1,1,0,0,1,.93.59,3.21,3.21,0,0,1,.11.95l.06,1.69.06,1.7,0,.42a1.46,1.46,0,0,1,0,.28,1.31,1.31,0,0,1-.09.34,1.25,1.25,0,0,1-1.11.71Z"/><path d="M139.64,370.27a.25.25,0,0,0,.27-.11l0-.07a1.13,1.13,0,0,1,0-.14v-.43l.07-1.69.06-1.7a2.81,2.81,0,0,0,0-.73.46.46,0,0,0-.4-.3.49.49,0,0,0-.49.26c-.1.14-.06.46-.08.74l-.07,1.7-.06,1.69a2.85,2.85,0,0,0,0,.83.7.7,0,0,0,.63.45Zm0,.5a.73.73,0,0,1-.69-.43,2.74,2.74,0,0,1-.09-.85l-.07-1.69-.06-1.7v-.42a1.06,1.06,0,0,1,.07-.51,1,1,0,0,1,.89-.57,1,1,0,0,1,.92.58,2.93,2.93,0,0,1,.11.95l.07,1.7.06,1.69V370a1.07,1.07,0,0,1-.1.61,1.2,1.2,0,0,1-1.11.71Z"/><path d="M134.71,370.27a.23.23,0,0,0,.26-.11.21.21,0,0,0,0-.07.38.38,0,0,0,0-.14l0-.43.06-1.69.06-1.7a3.48,3.48,0,0,0,0-.73.47.47,0,0,0-.41-.3.5.5,0,0,0-.49.26,2.44,2.44,0,0,0-.08.74l-.06,1.7-.06,1.69a2.86,2.86,0,0,0,0,.83.7.7,0,0,0,.64.45Zm0,.5a.74.74,0,0,1-.7-.43,2.74,2.74,0,0,1-.09-.85l-.06-1.69-.06-1.7,0-.42a1.08,1.08,0,0,1,.08-.51,1,1,0,0,1,.88-.57,1,1,0,0,1,.93.58,3.24,3.24,0,0,1,.11.95l.06,1.7.06,1.69,0,.43a1.46,1.46,0,0,1,0,.28,1,1,0,0,1-.09.33,1.21,1.21,0,0,1-1.11.71Z"/><path d="M132.24,370.27a.23.23,0,0,0,.26-.11.11.11,0,0,0,0-.07.38.38,0,0,0,0-.14l0-.43.06-1.69.07-1.7a3.34,3.34,0,0,0,0-.73.46.46,0,0,0-.41-.3.49.49,0,0,0-.48.26c-.1.14-.06.46-.09.74l-.06,1.7-.06,1.69a2.86,2.86,0,0,0,0,.83.72.72,0,0,0,.64.45Zm0,.5a.73.73,0,0,1-.69-.43,3.09,3.09,0,0,1-.1-.85l-.06-1.69-.06-1.7,0-.42a1.08,1.08,0,0,1,.08-.51,1,1,0,0,1,.88-.57,1,1,0,0,1,.93.58,2.93,2.93,0,0,1,.11.95l.06,1.7.07,1.69V370a1.46,1.46,0,0,1,0,.28,1,1,0,0,1-.09.33,1.21,1.21,0,0,1-1.11.71Z"/><path d="M137.18,370.27a.23.23,0,0,0,.26-.11l0-.07a.38.38,0,0,0,0-.14l0-.43.06-1.69.06-1.7a3.48,3.48,0,0,0,0-.73.48.48,0,0,0-.41-.3.49.49,0,0,0-.49.26,2.16,2.16,0,0,0-.08.74l-.06,1.7-.07,1.69a2.85,2.85,0,0,0,0,.83.7.7,0,0,0,.64.45Zm0,.5a.73.73,0,0,1-.7-.43,2.74,2.74,0,0,1-.09-.85l-.06-1.69-.07-1.7v-.42a1.08,1.08,0,0,1,.08-.51,1,1,0,0,1,.88-.57,1,1,0,0,1,.92.58,3,3,0,0,1,.12.95l.06,1.7.06,1.69,0,.43a1.46,1.46,0,0,1,0,.28,1,1,0,0,1-.1.33,1.2,1.2,0,0,1-1.1.71Z"/><path class="cls-4" d="M109,357.45,125,346.64c-.62-1-1.23-2-1.84-3a67.11,67.11,0,0,0-8.39,4.94,65.49,65.49,0,0,0-7.4,5.92C107.9,355.48,108.47,356.46,109,357.45Z"/><path d="M108.88,357.15l.27-.19c5.17-3.56,10.36-7,15.65-10.56l-.08.39-1.8-3,.32.09a67.1,67.1,0,0,0-15.88,10.67v0Zm.33.59-.17-.29-1.74-2.94v0l0,0a67.38,67.38,0,0,1,15.71-11l.2-.1.12.19,1.87,3,.15.23-.23.16C119.9,350.52,114.56,354.16,109.21,357.74Z"/><path class="cls-4" d="M121.66,346.93c-.31.34-.81,0-2.27,0-1,0-1.41.28-1.82,0s-.7-1.06-.46-1.37,1,.2,2.28,0c1-.16,1.34-.65,1.82-.45A1.39,1.39,0,0,1,121.66,346.93Z"/><path d="M122,347.26a.92.92,0,0,1-.68.29,2.71,2.71,0,0,1-.46,0l-.72-.12a6.84,6.84,0,0,0-1.43,0,4.79,4.79,0,0,1-.82,0,1.22,1.22,0,0,1-.85-.52,1.71,1.71,0,0,1-.33-.84,1,1,0,0,1,.09-.52.58.58,0,0,1,.51-.33,3.39,3.39,0,0,1,.81.14,4.18,4.18,0,0,0,.71.09,3.59,3.59,0,0,0,1.41-.25,1.72,1.72,0,0,1,.77-.2.88.88,0,0,1,.63.5,1.39,1.39,0,0,1,0,1.46Zm-.37-.33a1.34,1.34,0,0,0-.1-1.4.73.73,0,0,0-.53-.37,1.57,1.57,0,0,0-.66.24,3.71,3.71,0,0,1-1.51.39,14.38,14.38,0,0,1-1.47-.1c-.17-.06-.11.55.17.81a.52.52,0,0,0,.41.21,6.21,6.21,0,0,0,.68-.1,7.68,7.68,0,0,1,1.59-.1c.26,0,.53,0,.77.07h.29c.07,0,0,0,0,0Z"/><path class="cls-4" d="M119.09,348.93c-.46,0-.54-.6-1.6-1.61-.83-.8-1.32-.94-1.28-1.3s.76-.77,1.29-.63.42.48,1,1c.79.7,1.42.49,1.61,1A1.39,1.39,0,0,1,119.09,348.93Z"/><path d="M119.11,349.43a.91.91,0,0,1-.65-.25,2,2,0,0,1-.29-.34l-.39-.56a6.85,6.85,0,0,0-.88-1l-.51-.45-.29-.27a.72.72,0,0,1-.2-.57,1,1,0,0,1,.61-.73,1.63,1.63,0,0,1,.82-.16,1,1,0,0,1,.75.44,4.07,4.07,0,0,0,.38.55,2.64,2.64,0,0,0,1.09.72.92.92,0,0,1,.6.47,1,1,0,0,1-.05.74,1.37,1.37,0,0,1-1,.9Zm0-.5A1.3,1.3,0,0,0,120,348a.94.94,0,0,0,0-.62c-.08-.18-.29-.24-.51-.3a3,3,0,0,1-1.28-.7,5.74,5.74,0,0,1-.47-.55.46.46,0,0,0-.42-.2,1,1,0,0,0-.52.16c-.16.08-.28.25-.26.29a3.1,3.1,0,0,0,.3.24c.18.13.38.27.57.42a9.18,9.18,0,0,1,1.07,1l.46.55a1.59,1.59,0,0,0,.17.18s0,0,0,0Z"/><path class="cls-4" d="M115.35,349.7c-.29-.36.16-.79.35-2.25.14-1.07,0-1.44.28-1.79s1.37-.49,1.62-.14-.49.92-.55,2.15c0,1,.45,1.41.17,1.86A1.38,1.38,0,0,1,115.35,349.7Z"/><path d="M115,350a1,1,0,0,1-.18-.73,2.36,2.36,0,0,1,.12-.45,7.3,7.3,0,0,0,.23-.71,6.7,6.7,0,0,0,.25-1.42,5,5,0,0,1,.1-.84,1.21,1.21,0,0,1,.7-.73,1.85,1.85,0,0,1,.9-.13,1.45,1.45,0,0,1,.47.13.68.68,0,0,1,.36.48c0,.46-.21.61-.3.85a3.49,3.49,0,0,0-.29.66,2.67,2.67,0,0,0,0,1.43,2,2,0,0,1,.1.8.86.86,0,0,1-.57.57,1.4,1.4,0,0,1-1.46-.23Zm.39-.32a1.33,1.33,0,0,0,1.41.11.69.69,0,0,0,.44-.49,1.9,1.9,0,0,0-.16-.69A3,3,0,0,1,117,347a3.76,3.76,0,0,1,.25-.76c.1-.22.24-.51.2-.58s-.17-.14-.37-.13a1.1,1.1,0,0,0-.59.14.5.5,0,0,0-.31.34,5,5,0,0,0,0,.69,7.88,7.88,0,0,1-.15,1.6c0,.26-.12.53-.18.77a1.49,1.49,0,0,0-.06.29c0,.07,0,0,0,0Z"/><path class="cls-4" d="M112.15,352.8l-.13,0a1.67,1.67,0,0,1-.92-1.9.83.83,0,0,1,0-.15,2,2,0,0,1,1.34-.89l.09,0c.43.17.43.62.62,1.08s.56.53.49.83A1.78,1.78,0,0,1,112.15,352.8Z"/><path d="M112.1,353.29a1.59,1.59,0,0,1-1.16-.9,2.52,2.52,0,0,1-.24-1.25c0-.1,0-.21,0-.31a1.16,1.16,0,0,1,.15-.38,1.81,1.81,0,0,1,.47-.45,2.9,2.9,0,0,1,.52-.29,1.11,1.11,0,0,1,.69-.11.85.85,0,0,1,.53.48,3.76,3.76,0,0,1,.17.55,1.91,1.91,0,0,0,.48.89.6.6,0,0,1-.16.61,1.83,1.83,0,0,1-.43.36,1.64,1.64,0,0,1-1,.31Zm.05-.49a1.67,1.67,0,0,0,.95-.41,1.53,1.53,0,0,0,.35-.37c.09-.13.15-.33.1-.37a2.86,2.86,0,0,1-.37-.39,2.81,2.81,0,0,1-.26-.52c-.12-.35-.26-.64-.45-.65a1.6,1.6,0,0,0-.72.4,1.57,1.57,0,0,0-.27.33c0,.05,0,.08,0,.12a1.55,1.55,0,0,0,0,.22c0,.61.42,1.16.75,1.14Z"/><path class="cls-4" d="M109,354.73h0a.23.23,0,0,1-.09,0,6.6,6.6,0,0,1-.41-.91c-.22-.48-.55-.61-.5-1a.29.29,0,0,1,0-.16,1.92,1.92,0,0,1,1.33-.88l.1,0a1.94,1.94,0,0,1,1.1,1.76.74.74,0,0,1,0,.15A1.77,1.77,0,0,1,109,354.73Z"/><path d="M109,355.23l-.23-.06a.62.62,0,0,1-.19-.11l-.06-.07-.06-.08,0-.1-.1-.28-.17-.5a1.69,1.69,0,0,0-.19-.38,1.5,1.5,0,0,1-.31-.63.94.94,0,0,1,.26-.77,2.37,2.37,0,0,1,.47-.39,2.73,2.73,0,0,1,.54-.27l.32-.08a.72.72,0,0,1,.39.08,2.1,2.1,0,0,1,1.08,1.94c0,.46-.36.71-.63.9a1.65,1.65,0,0,1-1,.3Zm0-.5a1.54,1.54,0,0,0,.94-.4c.25-.21.54-.5.46-.79a1.75,1.75,0,0,0-1-1.49c-.29-.12-1.21.69-1,.84a5.2,5.2,0,0,1,.57.8l.22.49.11.2v0s0,0,0,0l0-.05a.44.44,0,0,0-.15-.08s0,0,0,0Z"/><path class="cls-4" d="M155.21,341.16c.71.77-.14,2.6-1,4.44s-1.39,3-2.47,3.95a9.14,9.14,0,0,1-5.92,2,12.11,12.11,0,0,1-8.39-2.47c-1.22-1-1-1.36-3.95-6.42-2.72-4.64-4-6.24-3.45-6.91s2-.17,3,.5c1.12.78,1.42,1.92,2,3.45a25.32,25.32,0,0,0,2.47,5.43,9.35,9.35,0,0,0,7.9,3.95c.63,0,3.87-.22,5.42-2.47,1.44-2.08.38-4.41,2-5.43A2.17,2.17,0,0,1,155.21,341.16Z"/><path d="M155.57,340.82a1.88,1.88,0,0,1,.37,1.55,6.23,6.23,0,0,1-.35,1.27c-.29.79-.64,1.52-1,2.25s-.68,1.47-1.1,2.19a6.9,6.9,0,0,1-1.65,2,8.57,8.57,0,0,1-4.68,1.79,16.33,16.33,0,0,1-4.93-.15,11,11,0,0,1-4.54-2,5.58,5.58,0,0,1-1.7-1.88l-1.14-2.14q-1.16-2.12-2.38-4.19c-.81-1.4-1.69-2.74-2.44-4.2a2.79,2.79,0,0,1-.37-1.28.82.82,0,0,1,.49-.65,1.44,1.44,0,0,1,.69-.12,4.18,4.18,0,0,1,3.79,2.93l.81,2.29a23.5,23.5,0,0,0,2,4.36,9.32,9.32,0,0,0,3.51,3.14,8.69,8.69,0,0,0,4.61,1,7.58,7.58,0,0,0,4.43-1.58,4.45,4.45,0,0,0,1.31-2,13.37,13.37,0,0,0,.43-2.37,3.72,3.72,0,0,1,.33-1.17,2.05,2.05,0,0,1,.87-.83,2.13,2.13,0,0,1,2.29.12Zm-.36.34a2.11,2.11,0,0,0-2.28-.09,1.9,1.9,0,0,0-.83.83,3.23,3.23,0,0,0-.32,1.15,14,14,0,0,1-.4,2.39,4.4,4.4,0,0,1-1.32,2,7.74,7.74,0,0,1-4.5,1.68,8.83,8.83,0,0,1-4.73-1,9.55,9.55,0,0,1-3.66-3.19,23.2,23.2,0,0,1-2.07-4.4l-.84-2.27a3.73,3.73,0,0,0-3.42-2.61c-.37,0-.68.11-.69.35a2.48,2.48,0,0,0,.33,1c.75,1.39,1.66,2.74,2.48,4.13s1.66,2.77,2.44,4.18l1.17,2.11a4.79,4.79,0,0,0,1.54,1.66,10.31,10.31,0,0,0,4.27,1.79,16.08,16.08,0,0,0,4.7.09,7.75,7.75,0,0,0,4.21-1.66,10,10,0,0,0,2.46-3.88c.34-.73.67-1.45.93-2.18a5,5,0,0,0,.28-1.07.94.94,0,0,0-.12-.73Z"/><path class="cls-10" d="M52.29,102.05c4.65,2.55,9.21,5.14,13.85,7.56,4.28,3,8.69,5.71,13.17,8.37,2.24,1.34,4.49,2.6,6.81,4a18.23,18.23,0,0,1,1.81,1.26,4.91,4.91,0,0,1,.52.46,3.38,3.38,0,0,1,.26.27c.11.13.21.27.31.41l.15.22a2.83,2.83,0,0,1,.15.35,2.35,2.35,0,0,1,.21.8,3,3,0,0,1-.1,1,3.7,3.7,0,0,1-.41.82,3.47,3.47,0,0,1-.92.82l-.41.23-.35.15a4.63,4.63,0,0,1-.66.22,5.4,5.4,0,0,1-.61.15,15.28,15.28,0,0,1-2.22.3,52.75,52.75,0,0,1-8.18-.21q-4-.39-7.94-1.07a114.6,114.6,0,0,1-30.44-9.53,109,109,0,0,1-13.88-8A90,90,0,0,1,12.18,99.34a146.85,146.85,0,0,0,13.47,8A104.88,104.88,0,0,0,39,115.07a111.17,111.17,0,0,0,29.38,9.19q3.81.66,7.64,1a47.68,47.68,0,0,0,7.52.21,11.65,11.65,0,0,0,1.67-.22,2.61,2.61,0,0,0,.35-.08,1.39,1.39,0,0,0,.27-.09c.19,0,.14-.14-.06.14a.85.85,0,0,0-.19.38,1.27,1.27,0,0,0,0,.86.47.47,0,0,0,.07.12,0,0,0,0,0,0,0h0l-.08-.07a1.66,1.66,0,0,0-.22-.19,14.17,14.17,0,0,0-1.41-1c-2.14-1.32-4.47-2.62-6.72-4-4.55-2.68-9-5.53-13.4-8.47A145.46,145.46,0,0,1,52.29,102.05Z"/><path class="cls-11" d="M10.64,94.24,24.4,119h.2L40.82,96.24a5.5,5.5,0,1,1,9,6.38L33,126.18a7.71,7.71,0,0,1,.12,1.53l-.77,46.43a8.55,8.55,0,1,1-17.1-.29L16,127.42a7.37,7.37,0,0,1,.05-.82c-.07-.11-.15-.2-.21-.31L1,99.58a5.5,5.5,0,1,1,9.62-5.34Z"/><path d="M10.77,94.17l3.47,6.18,3.55,6.13,7.27,12.18-.67-.39h.22l-.62.31c3.41-5.15,6.82-10.31,10.32-15.4,1.78-2.52,3.52-5.07,5.33-7.58a6.92,6.92,0,0,1,2-2A6.72,6.72,0,0,1,51.43,102a8.48,8.48,0,0,1-.7,1.21l-.7.94-5.57,7.41c-3.72,4.94-7.44,9.87-11.06,14.88l.08-.36a19.41,19.41,0,0,1,.11,2l0,1.91-.07,3.81-.09,7.63c0,5.09,0,10.17,0,15.26L33.49,172v1.91a11.21,11.21,0,0,1-.19,2.12,9.49,9.49,0,0,1-1.76,3.94,9.79,9.79,0,0,1-11.82,3.12,10,10,0,0,1-3.52-2.62,9.93,9.93,0,0,1-2.42-6.1c0-.4,0-.72,0-1v-1c.06-5.09.06-10.18.15-15.26s.14-10.18.28-15.26l.19-7.63.11-3.81.06-1.91,0-.95c0-.33.06-.73.09-1.09l.21.92-.26-.39-.17-.34-.36-.66-.69-1.34L12,122,9.27,116.6,3.78,105.87,1,100.51A13.23,13.23,0,0,1,.36,99.1a5.84,5.84,0,0,1,.25-4.66,5.74,5.74,0,0,1,10.16-.27Zm-.26.14a5.39,5.39,0,0,0-4.85-2.69A5.13,5.13,0,0,0,1.1,98.8a11.75,11.75,0,0,0,.71,1.27l3.09,5.17,6.22,10.33,6.12,10.27.22.37v.55l-.12,15.12c0,5.09-.13,10.17-.22,15.26s-.25,10.17-.36,15.26l0,.95c0,.33,0,.64,0,.88a5.87,5.87,0,0,0,.21,1.56,6.85,6.85,0,0,0,1.43,2.8,7.14,7.14,0,0,0,5.61,2.6,7.23,7.23,0,0,0,5.62-2.76A7.11,7.11,0,0,0,31,175.51a9.78,9.78,0,0,0,.2-1.68l.06-1.9.61-15.25c.19-5.09.39-10.17.51-15.26l.17-7.63,0-3.81,0-1.91c0-.64-.08-1.21-.11-1.81l0-.23.1-.13c3.54-5.06,7-10.19,10.44-15.32l5.19-7.68.64-1a4.45,4.45,0,0,0,.42-.81,4.37,4.37,0,0,0,.28-1.79A4.3,4.3,0,0,0,48,96.23a4.25,4.25,0,0,0-3.3-.91,4.12,4.12,0,0,0-2.91,1.83c-1.78,2.52-3.62,5-5.43,7.51-3.66,5-7.43,9.88-11.18,14.79l-.24.32h-1l-.2-.38-6.49-12.61-3.34-6.25Z"/><line class="cls-7" x1="32.17" y1="118.94" x2="44.96" y2="98.63"/><polygon points="31.74 118.67 44.96 98.63 32.59 119.2 31.74 118.67"/><line class="cls-7" x1="20.88" y1="120.21" x2="6.24" y2="97.53"/><polygon points="20.46 120.48 6.24 97.53 21.3 119.94 20.46 120.48"/><path class="cls-1" d="M15.32,154.61l12.89.21a11.08,11.08,0,0,1,10.72,9.34c7.52-2.11,18.8-.41,32.23,1.78,28.47,4.65,42.7,7,42.73,9.09,0,1.46-2.66,2.34-42.47,10.24-15,3-25.94,5.07-33,3.41a11.1,11.1,0,0,1-10.93,8.49L14.61,197C11,198.49,7,197,5.45,194a6.91,6.91,0,0,1,1-7.35A6.9,6.9,0,0,1,3.81,182c-.11-2.76,2.35-4,1.95-6.41S2.81,173,2.15,171c-.52-1.67.24-4.41,5.68-9.12a5.44,5.44,0,0,1-.37-4.13C8.39,155.3,11.67,153.75,15.32,154.61Z"/><path d="M15.64,185.21a4.39,4.39,0,0,1,1.49,3,4.12,4.12,0,0,1-1,3,3.85,3.85,0,0,0,.54-2.93A3.58,3.58,0,0,0,15,186Z"/><path d="M13.72,171.31a4.36,4.36,0,0,1,1.48,3,4.09,4.09,0,0,1-1,3,3.86,3.86,0,0,0,.54-2.92,3.61,3.61,0,0,0-1.6-2.29Z"/><path d="M20.12,161.69a4.45,4.45,0,0,1-.79,3.27,4.15,4.15,0,0,1-2.71,1.64,3.88,3.88,0,0,0,2.28-1.91,3.59,3.59,0,0,0,.24-2.77Z"/><path class="cls-2" d="M37.62,164.81c-.49,1-.25,1.3-1.33,10.74C35.1,186,34.73,186,35,187.06c3.05,10.88,43.82,9.43,50,9.21,25.79-.92,38.81-1.58,45.17-11.3,5.38-8.25,5.9-22.05-.87-28.64-8.33-8.11-19.49,2.94-53.21,3.7C57.86,160.44,41.05,157.64,37.62,164.81Z"/><path d="M37.8,164.9a5.57,5.57,0,0,0-.39,1.82l-.18,1.93-.33,3.87-.66,7.76-.36,3.88c-.05.64-.12,1.3-.16,1.91a1.76,1.76,0,0,0,.07.69c.09.23.23.48.33.72,1.11,1.9,3.44,3,5.74,3.78,4.7,1.55,9.82,2.09,14.88,2.58s10.21.74,15.35.93,10.29.3,15.48.3,10.36,0,15.51-.32c1.29-.09,2.58-.17,3.86-.3l1.92-.19,1.91-.26a44.79,44.79,0,0,0,7.49-1.63,18.32,18.32,0,0,0,11.5-8.79,27.08,27.08,0,0,0,2.94-14.29,21.77,21.77,0,0,0-1.56-7,13.21,13.21,0,0,0-4-5.39c-3.33-2.64-8.46-1.39-13.38-.27s-10.1,2.44-15.28,3.33a131,131,0,0,1-15.67,1.68,130.07,130.07,0,0,1-15.68-.32c-5.19-.33-10.34-.87-15.5-.92A36.33,36.33,0,0,0,44,161a12.64,12.64,0,0,0-3.57,1.26A6.25,6.25,0,0,0,37.8,164.9Zm-.36-.18a6.73,6.73,0,0,1,2.72-2.87,14.91,14.91,0,0,1,3.69-1.42,45.19,45.19,0,0,1,7.76-1.1c5.2-.35,10.41-.44,15.58-.62a203,203,0,0,0,30.56-2.93c2.51-.46,5-.95,7.53-1.51s5-1.16,7.58-1.69a48.17,48.17,0,0,1,8-1.17,15.3,15.3,0,0,1,4.41.46,11.46,11.46,0,0,1,4.13,2.06,16.54,16.54,0,0,1,5,7.07,23.86,23.86,0,0,1,1.48,8.17,29.67,29.67,0,0,1-1,8.08,27.08,27.08,0,0,1-3.22,7.45,18.94,18.94,0,0,1-5.67,5.81,25.42,25.42,0,0,1-7.33,3.17l-1,.27-1,.21c-.65.13-1.28.3-1.93.42-1.29.22-2.57.48-3.87.62-2.58.36-5.17.63-7.76.85-5.18.46-10.36.81-15.53,1.23s-10.39.76-15.6.81a128.41,128.41,0,0,1-15.67-.72,71.86,71.86,0,0,1-7.81-1.3,40.25,40.25,0,0,1-7.65-2.44,19.24,19.24,0,0,1-3.59-2.06,8.92,8.92,0,0,1-2.79-3.33c-.12-.37-.26-.7-.36-1.09a3.43,3.43,0,0,1,0-1.24c.11-.68.24-1.3.36-1.94l.68-3.82c.46-2.55.78-5.12,1.14-7.68.17-1.29.3-2.57.45-3.86l.2-1.94A5.49,5.49,0,0,1,37.44,164.72Z"/><path class="cls-12" d="M79.52,128.19a9.44,9.44,0,0,0,4,0,7.45,7.45,0,0,0,4-3c-.33-1.33-.66-2.67-1-4a5,5,0,0,0-3-2c-.67-.12-1,0-4,1-2.82.92-3.66,1.17-4,2a2.32,2.32,0,0,0,0,1.5v3.5A18.71,18.71,0,0,0,79.52,128.19Z"/><path class="cls-13" d="M79.54,128a6.13,6.13,0,0,0,2.26,0,4.87,4.87,0,0,0,1.88-.92c1-.82,1.87-1.63,2.88-2.57l-.18,1a36.06,36.06,0,0,0-.31-4.18l.08.18a3.3,3.3,0,0,0-2.58-1.57A1,1,0,0,0,83,120a7.14,7.14,0,0,0-.68.34c-.5.26-1,.53-1.56.77l-3.14,1.34a4.6,4.6,0,0,0-.54.3c-.13.09-.07.08,0,0s-.08.1,0,.44l.08.38v.07a14.85,14.85,0,0,1-.19,1.75c-.1.58-.26,1.17-.42,1.75l-.61-.88a9.93,9.93,0,0,0,1.74,1.12A6.5,6.5,0,0,0,79.54,128Zm0,.3c-.68-.09-1.38-.14-2.1-.17s-1.45,0-2.2-.11l-.38,0-.23-.84c-.16-.58-.32-1.17-.42-1.75a14.85,14.85,0,0,1-.19-1.75l.06.45a3.56,3.56,0,0,1,.18-3A3.13,3.13,0,0,1,75.43,120a5.34,5.34,0,0,1,1-.44c1.24-.39,2.33-.62,3.48-.89.57-.12,1.15-.22,1.77-.29.31,0,.62-.07,1-.08a2.74,2.74,0,0,1,1.15.22,7.76,7.76,0,0,1,3,2.35l0,.06,0,.11a36,36,0,0,0,1.69,3.83l.14.32-.32.65a5.73,5.73,0,0,1-1.64,2A5,5,0,0,1,84.38,129a6.75,6.75,0,0,1-2.59-.15A22.19,22.19,0,0,0,79.5,128.34Z"/></g></g></svg>